G04 #@! TF.GenerationSoftware,KiCad,Pcbnew,(6.0.4)*
G04 #@! TF.CreationDate,2023-03-25T19:21:49+01:00*
G04 #@! TF.ProjectId,Audiovisualizer PCB,41756469-6f76-4697-9375-616c697a6572,rev?*
G04 #@! TF.SameCoordinates,Original*
G04 #@! TF.FileFunction,Soldermask,Top*
G04 #@! TF.FilePolarity,Negative*
%FSLAX46Y46*%
G04 Gerber Fmt 4.6, Leading zero omitted, Abs format (unit mm)*
G04 Created by KiCad (PCBNEW (6.0.4)) date 2023-03-25 19:21:49*
%MOMM*%
%LPD*%
G01*
G04 APERTURE LIST*
G04 Aperture macros list*
%AMRoundRect*
0 Rectangle with rounded corners*
0 $1 Rounding radius*
0 $2 $3 $4 $5 $6 $7 $8 $9 X,Y pos of 4 corners*
0 Add a 4 corners polygon primitive as box body*
4,1,4,$2,$3,$4,$5,$6,$7,$8,$9,$2,$3,0*
0 Add four circle primitives for the rounded corners*
1,1,$1+$1,$2,$3*
1,1,$1+$1,$4,$5*
1,1,$1+$1,$6,$7*
1,1,$1+$1,$8,$9*
0 Add four rect primitives between the rounded corners*
20,1,$1+$1,$2,$3,$4,$5,0*
20,1,$1+$1,$4,$5,$6,$7,0*
20,1,$1+$1,$6,$7,$8,$9,0*
20,1,$1+$1,$8,$9,$2,$3,0*%
G04 Aperture macros list end*
%ADD10R,1.600000X1.600000*%
%ADD11C,1.600000*%
%ADD12R,1.700000X1.700000*%
%ADD13O,1.700000X1.700000*%
%ADD14O,3.500000X3.500000*%
%ADD15R,2.000000X1.905000*%
%ADD16O,2.000000X1.905000*%
%ADD17RoundRect,0.250002X1.699998X1.699998X-1.699998X1.699998X-1.699998X-1.699998X1.699998X-1.699998X0*%
%ADD18C,3.900000*%
%ADD19C,1.400000*%
%ADD20O,1.400000X1.400000*%
%ADD21R,1.800000X1.800000*%
%ADD22O,1.800000X1.800000*%
%ADD23O,1.308000X2.616000*%
%ADD24C,3.000000*%
%ADD25R,2.000000X2.000000*%
%ADD26C,2.000000*%
G04 APERTURE END LIST*
D10*
X79682380Y-81000000D03*
D11*
X77182380Y-81000000D03*
D10*
X115000000Y-136000000D03*
D11*
X117500000Y-136000000D03*
X106572401Y-146500000D03*
D10*
X104072401Y-146500000D03*
D12*
X134225000Y-73925000D03*
D13*
X136765000Y-73925000D03*
X134225000Y-76465000D03*
X136765000Y-76465000D03*
X134225000Y-79005000D03*
X136765000Y-79005000D03*
X134225000Y-81545000D03*
X136765000Y-81545000D03*
X134225000Y-84085000D03*
X136765000Y-84085000D03*
D12*
X78500000Y-100500000D03*
D13*
X78500000Y-103040000D03*
D14*
X89340000Y-137460000D03*
D15*
X106000000Y-140000000D03*
D16*
X106000000Y-137460000D03*
X106000000Y-134920000D03*
D17*
X131700000Y-68000000D03*
D18*
X123900000Y-68000000D03*
D19*
X83500000Y-147250000D03*
X83500000Y-144710000D03*
X115000000Y-147690000D03*
X115000000Y-145150000D03*
X138800000Y-69250000D03*
X138800000Y-66710000D03*
X61700000Y-70150000D03*
X61700000Y-67610000D03*
X117800000Y-69250000D03*
X117800000Y-66710000D03*
D13*
X115005000Y-141987401D03*
D12*
X117545000Y-141987401D03*
X70725000Y-84500000D03*
D13*
X73265000Y-84500000D03*
D12*
X67025000Y-71600000D03*
D13*
X69565000Y-71600000D03*
D19*
X65000000Y-95500000D03*
D20*
X57380000Y-95500000D03*
D15*
X54445000Y-94040000D03*
D16*
X54445000Y-91500000D03*
X54445000Y-88960000D03*
D12*
X61500000Y-90275000D03*
D13*
X61500000Y-87735000D03*
D21*
X72310000Y-90500000D03*
D22*
X64690000Y-90500000D03*
D19*
X65310000Y-120540000D03*
D20*
X57690000Y-120540000D03*
D19*
X65310000Y-108040000D03*
D20*
X57690000Y-108040000D03*
D15*
X54445000Y-119080000D03*
D16*
X54445000Y-116540000D03*
X54445000Y-114000000D03*
D15*
X54445000Y-106580000D03*
D16*
X54445000Y-104040000D03*
X54445000Y-101500000D03*
D12*
X61500000Y-115315000D03*
D13*
X61500000Y-112775000D03*
D12*
X61500000Y-102815000D03*
D13*
X61500000Y-100275000D03*
D21*
X72310000Y-115540000D03*
D22*
X64690000Y-115540000D03*
D21*
X72310000Y-103040000D03*
D22*
X64690000Y-103040000D03*
D19*
X108770000Y-134140000D03*
D20*
X108770000Y-141760000D03*
D19*
X111270000Y-141760000D03*
D20*
X111270000Y-134140000D03*
D11*
X73000000Y-81000000D03*
X73000000Y-76000000D03*
D23*
X90746000Y-71900000D03*
X93246000Y-71900000D03*
X85746000Y-71900000D03*
X83246000Y-71900000D03*
X88246000Y-66900000D03*
D11*
X88246000Y-71900000D03*
X83246000Y-66900000D03*
X93246000Y-66900000D03*
D23*
X107746000Y-71900000D03*
X110246000Y-71900000D03*
X102746000Y-71900000D03*
X100246000Y-71900000D03*
X105246000Y-66900000D03*
D11*
X105246000Y-71900000D03*
X100246000Y-66900000D03*
X110246000Y-66900000D03*
D20*
X72880000Y-69750000D03*
D19*
X80500000Y-69750000D03*
D16*
X140055000Y-131540000D03*
X140055000Y-129000000D03*
D15*
X140055000Y-126460000D03*
D12*
X133000000Y-130000000D03*
D13*
X133000000Y-132540000D03*
D21*
X72310000Y-140540000D03*
D22*
X64690000Y-140540000D03*
X129810000Y-143000000D03*
D21*
X122190000Y-143000000D03*
X122190000Y-130000000D03*
D22*
X129810000Y-130000000D03*
D20*
X136810000Y-125000000D03*
D19*
X129190000Y-125000000D03*
D16*
X140055000Y-119080000D03*
X140055000Y-116540000D03*
D15*
X140055000Y-114000000D03*
D21*
X72310000Y-128040000D03*
D22*
X64690000Y-128040000D03*
D19*
X91000000Y-92590000D03*
D20*
X91000000Y-100210000D03*
D15*
X140055000Y-88960000D03*
D16*
X140055000Y-91500000D03*
X140055000Y-94040000D03*
D20*
X136810000Y-100000000D03*
D19*
X129190000Y-100000000D03*
X88600000Y-100210000D03*
D20*
X88600000Y-92590000D03*
D15*
X140055000Y-101460000D03*
D16*
X140055000Y-104000000D03*
X140055000Y-106540000D03*
D20*
X72880000Y-73500000D03*
D19*
X80500000Y-73500000D03*
X65310000Y-133040000D03*
D20*
X57690000Y-133040000D03*
D19*
X129190000Y-87500000D03*
D20*
X136810000Y-87500000D03*
D12*
X133000000Y-117725000D03*
D13*
X133000000Y-120265000D03*
D19*
X129190000Y-138000000D03*
D20*
X136810000Y-138000000D03*
D12*
X61500000Y-127815000D03*
D13*
X61500000Y-125275000D03*
D22*
X129810000Y-92500000D03*
D21*
X122190000Y-92500000D03*
D15*
X54500000Y-131540000D03*
D16*
X54500000Y-129000000D03*
X54500000Y-126460000D03*
D13*
X133000000Y-145540000D03*
D12*
X133000000Y-143000000D03*
X133000000Y-105000000D03*
D13*
X133000000Y-107540000D03*
D24*
X84770000Y-81525000D03*
X109280000Y-128475000D03*
X84770000Y-128475000D03*
X109280000Y-81525000D03*
D25*
X109700000Y-120515000D03*
D26*
X109700000Y-117975000D03*
X109700000Y-115435000D03*
X109700000Y-112895000D03*
X109700000Y-110355000D03*
X109700000Y-107815000D03*
X109700000Y-105275000D03*
X109700000Y-102735000D03*
X109700000Y-100195000D03*
X109700000Y-97655000D03*
X109700000Y-95115000D03*
X109700000Y-92575000D03*
X109700000Y-90035000D03*
X109700000Y-87495000D03*
X109700000Y-84955000D03*
X84300000Y-84955000D03*
X84300000Y-87495000D03*
X84300000Y-90035000D03*
X84300000Y-92575000D03*
X84300000Y-95115000D03*
X84300000Y-97655000D03*
X84300000Y-100195000D03*
X84300000Y-102735000D03*
X84300000Y-105275000D03*
X84300000Y-107815000D03*
X84300000Y-110355000D03*
X84300000Y-112895000D03*
X84300000Y-115435000D03*
X84300000Y-117975000D03*
X84300000Y-120515000D03*
D12*
X61500000Y-140315000D03*
D13*
X61500000Y-137775000D03*
D15*
X54445000Y-144080000D03*
D16*
X54445000Y-141540000D03*
X54445000Y-139000000D03*
D19*
X65310000Y-145540000D03*
D20*
X57690000Y-145540000D03*
D16*
X140055000Y-144080000D03*
X140055000Y-141540000D03*
D15*
X140055000Y-139000000D03*
D12*
X117725000Y-72500000D03*
D13*
X120265000Y-72500000D03*
D12*
X133000000Y-92500000D03*
D13*
X133000000Y-95040000D03*
D21*
X122190000Y-105000000D03*
D22*
X129810000Y-105000000D03*
D20*
X136810000Y-113000000D03*
D19*
X129190000Y-113000000D03*
D21*
X122190000Y-117500000D03*
D22*
X129810000Y-117500000D03*
M02*
