%FSLAX45Y45*%
G04 Gerber Fmt 4.5, Leading zero omitted, Abs format (unit mm)*
G04 Created by KiCad (PCBNEW (6.0.4)) date 2023-03-25 19:23:12*
%MOMM*%
%LPD*%
G01*
G04 APERTURE LIST*
%TA.AperFunction,Profile*%
%ADD10C,0.100000*%
%TD*%
%TA.AperFunction,Profile*%
%ADD11C,0.200000*%
%TD*%
%ADD12C,0.200000*%
%ADD13C,0.040000*%
%ADD14C,0.070000*%
%ADD15C,0.080000*%
%ADD16C,0.090000*%
%ADD17C,0.100000*%
%ADD18C,0.102000*%
%ADD19C,0.110000*%
%ADD20C,0.210000*%
G04 APERTURE END LIST*
D10*
X5652843Y-6262843D02*
G75*
G03*
X5250000Y-6662843I0J-402853D01*
G01*
X14197157Y-6662843D02*
G75*
G03*
X13797157Y-6262843I-400000J0D01*
G01*
X13797157Y-15040000D02*
G75*
G03*
X14197157Y-14640000I0J400000D01*
G01*
X5250000Y-14640000D02*
G75*
G03*
X5650000Y-15040000I400000J0D01*
G01*
X13797157Y-6262843D02*
X5652843Y-6262843D01*
X5650000Y-15040000D02*
X13797157Y-15040000D01*
D11*
X14197157Y-6662843D02*
X14197157Y-14640000D01*
X5250000Y-6662843D02*
X5250000Y-14640000D01*
D12*
D13*
X5730000Y-6730000D02*
X5770000Y-6770000D01*
X5770000Y-6730000D02*
X5730000Y-6770000D01*
X5730000Y-7730000D02*
X5770000Y-7770000D01*
X5770000Y-7730000D02*
X5730000Y-7770000D01*
X5730000Y-8730000D02*
X5770000Y-8770000D01*
X5770000Y-8730000D02*
X5730000Y-8770000D01*
X5730000Y-9780000D02*
X5770000Y-9820000D01*
X5770000Y-9780000D02*
X5730000Y-9820000D01*
X5730000Y-11030000D02*
X5770000Y-11070000D01*
X5770000Y-11030000D02*
X5730000Y-11070000D01*
X5730000Y-12280000D02*
X5770000Y-12320000D01*
X5770000Y-12280000D02*
X5730000Y-12320000D01*
X5730000Y-13530000D02*
X5770000Y-13570000D01*
X5770000Y-13530000D02*
X5730000Y-13570000D01*
X5730000Y-14730000D02*
X5770000Y-14770000D01*
X5770000Y-14730000D02*
X5730000Y-14770000D01*
X6730000Y-6730000D02*
X6770000Y-6770000D01*
X6770000Y-6730000D02*
X6730000Y-6770000D01*
X6730000Y-7730000D02*
X6770000Y-7770000D01*
X6770000Y-7730000D02*
X6730000Y-7770000D01*
X6730000Y-14730000D02*
X6770000Y-14770000D01*
X6770000Y-14730000D02*
X6730000Y-14770000D01*
X7530000Y-9230000D02*
X7570000Y-9270000D01*
X7570000Y-9230000D02*
X7530000Y-9270000D01*
X7530000Y-11130000D02*
X7570000Y-11170000D01*
X7570000Y-11130000D02*
X7530000Y-11170000D01*
X7530000Y-12230000D02*
X7570000Y-12270000D01*
X7570000Y-12230000D02*
X7530000Y-12270000D01*
X7730000Y-6730000D02*
X7770000Y-6770000D01*
X7770000Y-6730000D02*
X7730000Y-6770000D01*
X7730000Y-13730000D02*
X7770000Y-13770000D01*
X7770000Y-13730000D02*
X7730000Y-13770000D01*
X7730000Y-14730000D02*
X7770000Y-14770000D01*
X7770000Y-14730000D02*
X7730000Y-14770000D01*
X8730000Y-7730000D02*
X8770000Y-7770000D01*
X8770000Y-7730000D02*
X8730000Y-7770000D01*
X8730000Y-8730000D02*
X8770000Y-8770000D01*
X8770000Y-8730000D02*
X8730000Y-8770000D01*
X8730000Y-10730000D02*
X8770000Y-10770000D01*
X8770000Y-10730000D02*
X8730000Y-10770000D01*
X8730000Y-11730000D02*
X8770000Y-11770000D01*
X8770000Y-11730000D02*
X8730000Y-11770000D01*
X8730000Y-12730000D02*
X8770000Y-12770000D01*
X8770000Y-12730000D02*
X8730000Y-12770000D01*
X8730000Y-14730000D02*
X8770000Y-14770000D01*
X8770000Y-14730000D02*
X8730000Y-14770000D01*
X9730000Y-7730000D02*
X9770000Y-7770000D01*
X9770000Y-7730000D02*
X9730000Y-7770000D01*
X9730000Y-8730000D02*
X9770000Y-8770000D01*
X9770000Y-8730000D02*
X9730000Y-8770000D01*
X9730000Y-11730000D02*
X9770000Y-11770000D01*
X9770000Y-11730000D02*
X9730000Y-11770000D01*
X9730000Y-12730000D02*
X9770000Y-12770000D01*
X9770000Y-12730000D02*
X9730000Y-12770000D01*
X9730000Y-14730000D02*
X9770000Y-14770000D01*
X9770000Y-14730000D02*
X9730000Y-14770000D01*
X10730000Y-7730000D02*
X10770000Y-7770000D01*
X10770000Y-7730000D02*
X10730000Y-7770000D01*
X10730000Y-8730000D02*
X10770000Y-8770000D01*
X10770000Y-8730000D02*
X10730000Y-8770000D01*
X10730000Y-9730000D02*
X10770000Y-9770000D01*
X10770000Y-9730000D02*
X10730000Y-9770000D01*
X10730000Y-10730000D02*
X10770000Y-10770000D01*
X10770000Y-10730000D02*
X10730000Y-10770000D01*
X10730000Y-11730000D02*
X10770000Y-11770000D01*
X10770000Y-11730000D02*
X10730000Y-11770000D01*
X11730000Y-9730000D02*
X11770000Y-9770000D01*
X11770000Y-9730000D02*
X11730000Y-9770000D01*
X11730000Y-10730000D02*
X11770000Y-10770000D01*
X11770000Y-10730000D02*
X11730000Y-10770000D01*
X11730000Y-11730000D02*
X11770000Y-11770000D01*
X11770000Y-11730000D02*
X11730000Y-11770000D01*
X11730000Y-14730000D02*
X11770000Y-14770000D01*
X11770000Y-14730000D02*
X11730000Y-14770000D01*
X11780000Y-12780000D02*
X11820000Y-12820000D01*
X11820000Y-12780000D02*
X11780000Y-12820000D01*
X12730000Y-14730000D02*
X12770000Y-14770000D01*
X12770000Y-14730000D02*
X12730000Y-14770000D01*
X13730000Y-9730000D02*
X13770000Y-9770000D01*
X13770000Y-9730000D02*
X13730000Y-9770000D01*
X13730000Y-10730000D02*
X13770000Y-10770000D01*
X13770000Y-10730000D02*
X13730000Y-10770000D01*
X13730000Y-12280000D02*
X13770000Y-12320000D01*
X13770000Y-12280000D02*
X13730000Y-12320000D01*
X13730000Y-13530000D02*
X13770000Y-13570000D01*
X13770000Y-13530000D02*
X13730000Y-13570000D01*
X13730000Y-14730000D02*
X13770000Y-14770000D01*
X13770000Y-14730000D02*
X13730000Y-14770000D01*
X13980000Y-7230000D02*
X14020000Y-7270000D01*
X14020000Y-7230000D02*
X13980000Y-7270000D01*
X13980000Y-8430000D02*
X14020000Y-8470000D01*
X14020000Y-8430000D02*
X13980000Y-8470000D01*
D14*
X5773000Y-9550000D02*
G75*
G03*
X5773000Y-9550000I-35000J0D01*
G01*
X5804000Y-10804000D02*
G75*
G03*
X5804000Y-10804000I-35000J0D01*
G01*
X5804000Y-12054000D02*
G75*
G03*
X5804000Y-12054000I-35000J0D01*
G01*
X5804000Y-13304000D02*
G75*
G03*
X5804000Y-13304000I-35000J0D01*
G01*
X5804000Y-14554000D02*
G75*
G03*
X5804000Y-14554000I-35000J0D01*
G01*
X6535000Y-9550000D02*
G75*
G03*
X6535000Y-9550000I-35000J0D01*
G01*
X6566000Y-10804000D02*
G75*
G03*
X6566000Y-10804000I-35000J0D01*
G01*
X6566000Y-12054000D02*
G75*
G03*
X6566000Y-12054000I-35000J0D01*
G01*
X6566000Y-13304000D02*
G75*
G03*
X6566000Y-13304000I-35000J0D01*
G01*
X6566000Y-14554000D02*
G75*
G03*
X6566000Y-14554000I-35000J0D01*
G01*
X7323000Y-6975000D02*
G75*
G03*
X7323000Y-6975000I-35000J0D01*
G01*
X7323000Y-7350000D02*
G75*
G03*
X7323000Y-7350000I-35000J0D01*
G01*
X8085000Y-6975000D02*
G75*
G03*
X8085000Y-6975000I-35000J0D01*
G01*
X8085000Y-7350000D02*
G75*
G03*
X8085000Y-7350000I-35000J0D01*
G01*
X8895000Y-9259000D02*
G75*
G03*
X8895000Y-9259000I-35000J0D01*
G01*
X8895000Y-10021000D02*
G75*
G03*
X8895000Y-10021000I-35000J0D01*
G01*
X9135000Y-9259000D02*
G75*
G03*
X9135000Y-9259000I-35000J0D01*
G01*
X9135000Y-10021000D02*
G75*
G03*
X9135000Y-10021000I-35000J0D01*
G01*
X10912000Y-13414000D02*
G75*
G03*
X10912000Y-13414000I-35000J0D01*
G01*
X10912000Y-14176000D02*
G75*
G03*
X10912000Y-14176000I-35000J0D01*
G01*
X11162000Y-13414000D02*
G75*
G03*
X11162000Y-13414000I-35000J0D01*
G01*
X11162000Y-14176000D02*
G75*
G03*
X11162000Y-14176000I-35000J0D01*
G01*
X12954000Y-8750000D02*
G75*
G03*
X12954000Y-8750000I-35000J0D01*
G01*
X12954000Y-10000000D02*
G75*
G03*
X12954000Y-10000000I-35000J0D01*
G01*
X12954000Y-11300000D02*
G75*
G03*
X12954000Y-11300000I-35000J0D01*
G01*
X12954000Y-12500000D02*
G75*
G03*
X12954000Y-12500000I-35000J0D01*
G01*
X12954000Y-13800000D02*
G75*
G03*
X12954000Y-13800000I-35000J0D01*
G01*
X13716000Y-8750000D02*
G75*
G03*
X13716000Y-8750000I-35000J0D01*
G01*
X13716000Y-10000000D02*
G75*
G03*
X13716000Y-10000000I-35000J0D01*
G01*
X13716000Y-11300000D02*
G75*
G03*
X13716000Y-11300000I-35000J0D01*
G01*
X13716000Y-12500000D02*
G75*
G03*
X13716000Y-12500000I-35000J0D01*
G01*
X13716000Y-13800000D02*
G75*
G03*
X13716000Y-13800000I-35000J0D01*
G01*
D15*
X6170000Y-6721000D02*
X6170000Y-6801000D01*
X6130000Y-6761000D02*
X6210000Y-6761000D01*
X6170000Y-6975000D02*
X6170000Y-7055000D01*
X6130000Y-7015000D02*
X6210000Y-7015000D01*
X7300000Y-7560000D02*
X7300000Y-7640000D01*
X7260000Y-7600000D02*
X7340000Y-7600000D01*
X7300000Y-8060000D02*
X7300000Y-8140000D01*
X7260000Y-8100000D02*
X7340000Y-8100000D01*
X7718238Y-8060000D02*
X7718238Y-8140000D01*
X7678238Y-8100000D02*
X7758238Y-8100000D01*
X7968238Y-8060000D02*
X7968238Y-8140000D01*
X7928238Y-8100000D02*
X8008238Y-8100000D01*
X8324600Y-7150000D02*
X8324600Y-7230000D01*
X8284600Y-7190000D02*
X8364600Y-7190000D01*
D12*
X8294600Y-7155000D02*
X8294600Y-7225000D01*
X8354600Y-7155000D02*
X8354600Y-7225000D01*
X8294600Y-7225000D02*
G75*
G03*
X8354600Y-7225000I30000J0D01*
G01*
X8354600Y-7155000D02*
G75*
G03*
X8294600Y-7155000I-30000J0D01*
G01*
D15*
X8350000Y-14431000D02*
X8350000Y-14511000D01*
X8310000Y-14471000D02*
X8390000Y-14471000D01*
X8350000Y-14685000D02*
X8350000Y-14765000D01*
X8310000Y-14725000D02*
X8390000Y-14725000D01*
X8574600Y-7150000D02*
X8574600Y-7230000D01*
X8534600Y-7190000D02*
X8614600Y-7190000D01*
D12*
X8544600Y-7155000D02*
X8544600Y-7225000D01*
X8604600Y-7155000D02*
X8604600Y-7225000D01*
X8544600Y-7225000D02*
G75*
G03*
X8604600Y-7225000I30000J0D01*
G01*
X8604600Y-7155000D02*
G75*
G03*
X8544600Y-7155000I-30000J0D01*
G01*
D15*
X8824600Y-6650000D02*
X8824600Y-6730000D01*
X8784600Y-6690000D02*
X8864600Y-6690000D01*
D12*
X8794600Y-6655000D02*
X8794600Y-6725000D01*
X8854600Y-6655000D02*
X8854600Y-6725000D01*
X8794600Y-6725000D02*
G75*
G03*
X8854600Y-6725000I30000J0D01*
G01*
X8854600Y-6655000D02*
G75*
G03*
X8794600Y-6655000I-30000J0D01*
G01*
D15*
X9074600Y-7150000D02*
X9074600Y-7230000D01*
X9034600Y-7190000D02*
X9114600Y-7190000D01*
D12*
X9044600Y-7155000D02*
X9044600Y-7225000D01*
X9104600Y-7155000D02*
X9104600Y-7225000D01*
X9044600Y-7225000D02*
G75*
G03*
X9104600Y-7225000I30000J0D01*
G01*
X9104600Y-7155000D02*
G75*
G03*
X9044600Y-7155000I-30000J0D01*
G01*
D15*
X9324600Y-7150000D02*
X9324600Y-7230000D01*
X9284600Y-7190000D02*
X9364600Y-7190000D01*
D12*
X9294600Y-7155000D02*
X9294600Y-7225000D01*
X9354600Y-7155000D02*
X9354600Y-7225000D01*
X9294600Y-7225000D02*
G75*
G03*
X9354600Y-7225000I30000J0D01*
G01*
X9354600Y-7155000D02*
G75*
G03*
X9294600Y-7155000I-30000J0D01*
G01*
D15*
X10024600Y-7150000D02*
X10024600Y-7230000D01*
X9984600Y-7190000D02*
X10064600Y-7190000D01*
D12*
X9994600Y-7155000D02*
X9994600Y-7225000D01*
X10054600Y-7155000D02*
X10054600Y-7225000D01*
X9994600Y-7225000D02*
G75*
G03*
X10054600Y-7225000I30000J0D01*
G01*
X10054600Y-7155000D02*
G75*
G03*
X9994600Y-7155000I-30000J0D01*
G01*
D15*
X10274600Y-7150000D02*
X10274600Y-7230000D01*
X10234600Y-7190000D02*
X10314600Y-7190000D01*
D12*
X10244600Y-7155000D02*
X10244600Y-7225000D01*
X10304600Y-7155000D02*
X10304600Y-7225000D01*
X10244600Y-7225000D02*
G75*
G03*
X10304600Y-7225000I30000J0D01*
G01*
X10304600Y-7155000D02*
G75*
G03*
X10244600Y-7155000I-30000J0D01*
G01*
D15*
X10407240Y-14610000D02*
X10407240Y-14690000D01*
X10367240Y-14650000D02*
X10447240Y-14650000D01*
X10524600Y-6650000D02*
X10524600Y-6730000D01*
X10484600Y-6690000D02*
X10564600Y-6690000D01*
D12*
X10494600Y-6655000D02*
X10494600Y-6725000D01*
X10554600Y-6655000D02*
X10554600Y-6725000D01*
X10494600Y-6725000D02*
G75*
G03*
X10554600Y-6725000I30000J0D01*
G01*
X10554600Y-6655000D02*
G75*
G03*
X10494600Y-6655000I-30000J0D01*
G01*
D15*
X10657240Y-14610000D02*
X10657240Y-14690000D01*
X10617240Y-14650000D02*
X10697240Y-14650000D01*
X10774600Y-7150000D02*
X10774600Y-7230000D01*
X10734600Y-7190000D02*
X10814600Y-7190000D01*
D12*
X10744600Y-7155000D02*
X10744600Y-7225000D01*
X10804600Y-7155000D02*
X10804600Y-7225000D01*
X10744600Y-7225000D02*
G75*
G03*
X10804600Y-7225000I30000J0D01*
G01*
X10804600Y-7155000D02*
G75*
G03*
X10744600Y-7155000I-30000J0D01*
G01*
D15*
X11024600Y-7150000D02*
X11024600Y-7230000D01*
X10984600Y-7190000D02*
X11064600Y-7190000D01*
D12*
X10994600Y-7155000D02*
X10994600Y-7225000D01*
X11054600Y-7155000D02*
X11054600Y-7225000D01*
X10994600Y-7225000D02*
G75*
G03*
X11054600Y-7225000I30000J0D01*
G01*
X11054600Y-7155000D02*
G75*
G03*
X10994600Y-7155000I-30000J0D01*
G01*
D15*
X11500000Y-13560000D02*
X11500000Y-13640000D01*
X11460000Y-13600000D02*
X11540000Y-13600000D01*
X11500000Y-14475000D02*
X11500000Y-14555000D01*
X11460000Y-14515000D02*
X11540000Y-14515000D01*
X11500000Y-14729000D02*
X11500000Y-14809000D01*
X11460000Y-14769000D02*
X11540000Y-14769000D01*
X11750000Y-13560000D02*
X11750000Y-13640000D01*
X11710000Y-13600000D02*
X11790000Y-13600000D01*
X11780000Y-6631000D02*
X11780000Y-6711000D01*
X11740000Y-6671000D02*
X11820000Y-6671000D01*
X11780000Y-6885000D02*
X11780000Y-6965000D01*
X11740000Y-6925000D02*
X11820000Y-6925000D01*
X13880000Y-6631000D02*
X13880000Y-6711000D01*
X13840000Y-6671000D02*
X13920000Y-6671000D01*
X13880000Y-6885000D02*
X13880000Y-6965000D01*
X13840000Y-6925000D02*
X13920000Y-6925000D01*
D16*
X6500820Y-9081820D02*
X6500820Y-9018180D01*
X6437180Y-9018180D01*
X6437180Y-9081820D01*
X6500820Y-9081820D01*
X6500820Y-10335820D02*
X6500820Y-10272180D01*
X6437180Y-10272180D01*
X6437180Y-10335820D01*
X6500820Y-10335820D01*
X6500820Y-11585820D02*
X6500820Y-11522180D01*
X6437180Y-11522180D01*
X6437180Y-11585820D01*
X6500820Y-11585820D01*
X6500820Y-12835820D02*
X6500820Y-12772180D01*
X6437180Y-12772180D01*
X6437180Y-12835820D01*
X6500820Y-12835820D01*
X6500820Y-14085820D02*
X6500820Y-14022180D01*
X6437180Y-14022180D01*
X6437180Y-14085820D01*
X6500820Y-14085820D01*
X7262820Y-9081820D02*
X7262820Y-9018180D01*
X7199180Y-9018180D01*
X7199180Y-9081820D01*
X7262820Y-9081820D01*
X7262820Y-10335820D02*
X7262820Y-10272180D01*
X7199180Y-10272180D01*
X7199180Y-10335820D01*
X7262820Y-10335820D01*
X7262820Y-11585820D02*
X7262820Y-11522180D01*
X7199180Y-11522180D01*
X7199180Y-11585820D01*
X7262820Y-11585820D01*
X7262820Y-12835820D02*
X7262820Y-12772180D01*
X7199180Y-12772180D01*
X7199180Y-12835820D01*
X7262820Y-12835820D01*
X7262820Y-14085820D02*
X7262820Y-14022180D01*
X7199180Y-14022180D01*
X7199180Y-14085820D01*
X7262820Y-14085820D01*
X12250820Y-9281820D02*
X12250820Y-9218180D01*
X12187180Y-9218180D01*
X12187180Y-9281820D01*
X12250820Y-9281820D01*
X12250820Y-10531820D02*
X12250820Y-10468180D01*
X12187180Y-10468180D01*
X12187180Y-10531820D01*
X12250820Y-10531820D01*
X12250820Y-11781820D02*
X12250820Y-11718180D01*
X12187180Y-11718180D01*
X12187180Y-11781820D01*
X12250820Y-11781820D01*
X12250820Y-13031820D02*
X12250820Y-12968180D01*
X12187180Y-12968180D01*
X12187180Y-13031820D01*
X12250820Y-13031820D01*
X12250820Y-14331820D02*
X12250820Y-14268180D01*
X12187180Y-14268180D01*
X12187180Y-14331820D01*
X12250820Y-14331820D01*
X13012820Y-9281820D02*
X13012820Y-9218180D01*
X12949180Y-9218180D01*
X12949180Y-9281820D01*
X13012820Y-9281820D01*
X13012820Y-10531820D02*
X13012820Y-10468180D01*
X12949180Y-10468180D01*
X12949180Y-10531820D01*
X13012820Y-10531820D01*
X13012820Y-11781820D02*
X13012820Y-11718180D01*
X12949180Y-11718180D01*
X12949180Y-11781820D01*
X13012820Y-11781820D01*
X13012820Y-13031820D02*
X13012820Y-12968180D01*
X12949180Y-12968180D01*
X12949180Y-13031820D01*
X13012820Y-13031820D01*
X13012820Y-14331820D02*
X13012820Y-14268180D01*
X12949180Y-14268180D01*
X12949180Y-14331820D01*
X13012820Y-14331820D01*
D17*
X6150000Y-8823500D02*
X6200000Y-8773500D01*
X6150000Y-8723500D01*
X6100000Y-8773500D01*
X6150000Y-8823500D01*
X6150000Y-9077500D02*
X6200000Y-9027500D01*
X6150000Y-8977500D01*
X6100000Y-9027500D01*
X6150000Y-9077500D01*
X6150000Y-10077500D02*
X6200000Y-10027500D01*
X6150000Y-9977500D01*
X6100000Y-10027500D01*
X6150000Y-10077500D01*
X6150000Y-10331500D02*
X6200000Y-10281500D01*
X6150000Y-10231500D01*
X6100000Y-10281500D01*
X6150000Y-10331500D01*
X6150000Y-11327500D02*
X6200000Y-11277500D01*
X6150000Y-11227500D01*
X6100000Y-11277500D01*
X6150000Y-11327500D01*
X6150000Y-11581500D02*
X6200000Y-11531500D01*
X6150000Y-11481500D01*
X6100000Y-11531500D01*
X6150000Y-11581500D01*
X6150000Y-12577500D02*
X6200000Y-12527500D01*
X6150000Y-12477500D01*
X6100000Y-12527500D01*
X6150000Y-12577500D01*
X6150000Y-12831500D02*
X6200000Y-12781500D01*
X6150000Y-12731500D01*
X6100000Y-12781500D01*
X6150000Y-12831500D01*
X6150000Y-13827500D02*
X6200000Y-13777500D01*
X6150000Y-13727500D01*
X6100000Y-13777500D01*
X6150000Y-13827500D01*
X6150000Y-14081500D02*
X6200000Y-14031500D01*
X6150000Y-13981500D01*
X6100000Y-14031500D01*
X6150000Y-14081500D01*
X6702500Y-7210000D02*
X6752500Y-7160000D01*
X6702500Y-7110000D01*
X6652500Y-7160000D01*
X6702500Y-7210000D01*
X6956500Y-7210000D02*
X7006500Y-7160000D01*
X6956500Y-7110000D01*
X6906500Y-7160000D01*
X6956500Y-7210000D01*
X7072500Y-8500000D02*
X7122500Y-8450000D01*
X7072500Y-8400000D01*
X7022500Y-8450000D01*
X7072500Y-8500000D01*
X7326500Y-8500000D02*
X7376500Y-8450000D01*
X7326500Y-8400000D01*
X7276500Y-8450000D01*
X7326500Y-8500000D01*
X7850000Y-10100000D02*
X7900000Y-10050000D01*
X7850000Y-10000000D01*
X7800000Y-10050000D01*
X7850000Y-10100000D01*
X7850000Y-10354000D02*
X7900000Y-10304000D01*
X7850000Y-10254000D01*
X7800000Y-10304000D01*
X7850000Y-10354000D01*
X11500500Y-14248740D02*
X11550500Y-14198740D01*
X11500500Y-14148740D01*
X11450500Y-14198740D01*
X11500500Y-14248740D01*
X11754500Y-14248740D02*
X11804500Y-14198740D01*
X11754500Y-14148740D01*
X11704500Y-14198740D01*
X11754500Y-14248740D01*
X11772500Y-7300000D02*
X11822500Y-7250000D01*
X11772500Y-7200000D01*
X11722500Y-7250000D01*
X11772500Y-7300000D01*
X12026500Y-7300000D02*
X12076500Y-7250000D01*
X12026500Y-7200000D01*
X11976500Y-7250000D01*
X12026500Y-7300000D01*
X13300000Y-9300000D02*
X13350000Y-9250000D01*
X13300000Y-9200000D01*
X13250000Y-9250000D01*
X13300000Y-9300000D01*
X13300000Y-9554000D02*
X13350000Y-9504000D01*
X13300000Y-9454000D01*
X13250000Y-9504000D01*
X13300000Y-9554000D01*
X13300000Y-10550000D02*
X13350000Y-10500000D01*
X13300000Y-10450000D01*
X13250000Y-10500000D01*
X13300000Y-10550000D01*
X13300000Y-10804000D02*
X13350000Y-10754000D01*
X13300000Y-10704000D01*
X13250000Y-10754000D01*
X13300000Y-10804000D01*
X13300000Y-11822500D02*
X13350000Y-11772500D01*
X13300000Y-11722500D01*
X13250000Y-11772500D01*
X13300000Y-11822500D01*
X13300000Y-12076500D02*
X13350000Y-12026500D01*
X13300000Y-11976500D01*
X13250000Y-12026500D01*
X13300000Y-12076500D01*
X13300000Y-13050000D02*
X13350000Y-13000000D01*
X13300000Y-12950000D01*
X13250000Y-13000000D01*
X13300000Y-13050000D01*
X13300000Y-13304000D02*
X13350000Y-13254000D01*
X13300000Y-13204000D01*
X13250000Y-13254000D01*
X13300000Y-13304000D01*
X13300000Y-14350000D02*
X13350000Y-14300000D01*
X13300000Y-14250000D01*
X13250000Y-14300000D01*
X13300000Y-14350000D01*
X13300000Y-14604000D02*
X13350000Y-14554000D01*
X13300000Y-14504000D01*
X13250000Y-14554000D01*
X13300000Y-14604000D01*
X13422500Y-7442500D02*
X13472500Y-7392500D01*
X13422500Y-7342500D01*
X13372500Y-7392500D01*
X13422500Y-7442500D01*
X13422500Y-7696500D02*
X13472500Y-7646500D01*
X13422500Y-7596500D01*
X13372500Y-7646500D01*
X13422500Y-7696500D01*
X13422500Y-7950500D02*
X13472500Y-7900500D01*
X13422500Y-7850500D01*
X13372500Y-7900500D01*
X13422500Y-7950500D01*
X13422500Y-8204500D02*
X13472500Y-8154500D01*
X13422500Y-8104500D01*
X13372500Y-8154500D01*
X13422500Y-8204500D01*
X13422500Y-8458500D02*
X13472500Y-8408500D01*
X13422500Y-8358500D01*
X13372500Y-8408500D01*
X13422500Y-8458500D01*
X13676500Y-7442500D02*
X13726500Y-7392500D01*
X13676500Y-7342500D01*
X13626500Y-7392500D01*
X13676500Y-7442500D01*
X13676500Y-7696500D02*
X13726500Y-7646500D01*
X13676500Y-7596500D01*
X13626500Y-7646500D01*
X13676500Y-7696500D01*
X13676500Y-7950500D02*
X13726500Y-7900500D01*
X13676500Y-7850500D01*
X13626500Y-7900500D01*
X13676500Y-7950500D01*
X13676500Y-8204500D02*
X13726500Y-8154500D01*
X13676500Y-8104500D01*
X13626500Y-8154500D01*
X13676500Y-8204500D01*
X13676500Y-8458500D02*
X13726500Y-8408500D01*
X13676500Y-8358500D01*
X13626500Y-8408500D01*
X13676500Y-8458500D01*
D18*
X8379000Y-8444500D02*
X8481000Y-8546500D01*
X8481000Y-8444500D02*
X8379000Y-8546500D01*
X8481000Y-8495500D02*
G75*
G03*
X8481000Y-8495500I-51000J0D01*
G01*
X8379000Y-8698500D02*
X8481000Y-8800500D01*
X8481000Y-8698500D02*
X8379000Y-8800500D01*
X8481000Y-8749500D02*
G75*
G03*
X8481000Y-8749500I-51000J0D01*
G01*
X8379000Y-8952500D02*
X8481000Y-9054500D01*
X8481000Y-8952500D02*
X8379000Y-9054500D01*
X8481000Y-9003500D02*
G75*
G03*
X8481000Y-9003500I-51000J0D01*
G01*
X8379000Y-9206500D02*
X8481000Y-9308500D01*
X8481000Y-9206500D02*
X8379000Y-9308500D01*
X8481000Y-9257500D02*
G75*
G03*
X8481000Y-9257500I-51000J0D01*
G01*
X8379000Y-9460500D02*
X8481000Y-9562500D01*
X8481000Y-9460500D02*
X8379000Y-9562500D01*
X8481000Y-9511500D02*
G75*
G03*
X8481000Y-9511500I-51000J0D01*
G01*
X8379000Y-9714500D02*
X8481000Y-9816500D01*
X8481000Y-9714500D02*
X8379000Y-9816500D01*
X8481000Y-9765500D02*
G75*
G03*
X8481000Y-9765500I-51000J0D01*
G01*
X8379000Y-9968500D02*
X8481000Y-10070500D01*
X8481000Y-9968500D02*
X8379000Y-10070500D01*
X8481000Y-10019500D02*
G75*
G03*
X8481000Y-10019500I-51000J0D01*
G01*
X8379000Y-10222500D02*
X8481000Y-10324500D01*
X8481000Y-10222500D02*
X8379000Y-10324500D01*
X8481000Y-10273500D02*
G75*
G03*
X8481000Y-10273500I-51000J0D01*
G01*
X8379000Y-10476500D02*
X8481000Y-10578500D01*
X8481000Y-10476500D02*
X8379000Y-10578500D01*
X8481000Y-10527500D02*
G75*
G03*
X8481000Y-10527500I-51000J0D01*
G01*
X8379000Y-10730500D02*
X8481000Y-10832500D01*
X8481000Y-10730500D02*
X8379000Y-10832500D01*
X8481000Y-10781500D02*
G75*
G03*
X8481000Y-10781500I-51000J0D01*
G01*
X8379000Y-10984500D02*
X8481000Y-11086500D01*
X8481000Y-10984500D02*
X8379000Y-11086500D01*
X8481000Y-11035500D02*
G75*
G03*
X8481000Y-11035500I-51000J0D01*
G01*
X8379000Y-11238500D02*
X8481000Y-11340500D01*
X8481000Y-11238500D02*
X8379000Y-11340500D01*
X8481000Y-11289500D02*
G75*
G03*
X8481000Y-11289500I-51000J0D01*
G01*
X8379000Y-11492500D02*
X8481000Y-11594500D01*
X8481000Y-11492500D02*
X8379000Y-11594500D01*
X8481000Y-11543500D02*
G75*
G03*
X8481000Y-11543500I-51000J0D01*
G01*
X8379000Y-11746500D02*
X8481000Y-11848500D01*
X8481000Y-11746500D02*
X8379000Y-11848500D01*
X8481000Y-11797500D02*
G75*
G03*
X8481000Y-11797500I-51000J0D01*
G01*
X8379000Y-12000500D02*
X8481000Y-12102500D01*
X8481000Y-12000500D02*
X8379000Y-12102500D01*
X8481000Y-12051500D02*
G75*
G03*
X8481000Y-12051500I-51000J0D01*
G01*
X10919000Y-8444500D02*
X11021000Y-8546500D01*
X11021000Y-8444500D02*
X10919000Y-8546500D01*
X11021000Y-8495500D02*
G75*
G03*
X11021000Y-8495500I-51000J0D01*
G01*
X10919000Y-8698500D02*
X11021000Y-8800500D01*
X11021000Y-8698500D02*
X10919000Y-8800500D01*
X11021000Y-8749500D02*
G75*
G03*
X11021000Y-8749500I-51000J0D01*
G01*
X10919000Y-8952500D02*
X11021000Y-9054500D01*
X11021000Y-8952500D02*
X10919000Y-9054500D01*
X11021000Y-9003500D02*
G75*
G03*
X11021000Y-9003500I-51000J0D01*
G01*
X10919000Y-9206500D02*
X11021000Y-9308500D01*
X11021000Y-9206500D02*
X10919000Y-9308500D01*
X11021000Y-9257500D02*
G75*
G03*
X11021000Y-9257500I-51000J0D01*
G01*
X10919000Y-9460500D02*
X11021000Y-9562500D01*
X11021000Y-9460500D02*
X10919000Y-9562500D01*
X11021000Y-9511500D02*
G75*
G03*
X11021000Y-9511500I-51000J0D01*
G01*
X10919000Y-9714500D02*
X11021000Y-9816500D01*
X11021000Y-9714500D02*
X10919000Y-9816500D01*
X11021000Y-9765500D02*
G75*
G03*
X11021000Y-9765500I-51000J0D01*
G01*
X10919000Y-9968500D02*
X11021000Y-10070500D01*
X11021000Y-9968500D02*
X10919000Y-10070500D01*
X11021000Y-10019500D02*
G75*
G03*
X11021000Y-10019500I-51000J0D01*
G01*
X10919000Y-10222500D02*
X11021000Y-10324500D01*
X11021000Y-10222500D02*
X10919000Y-10324500D01*
X11021000Y-10273500D02*
G75*
G03*
X11021000Y-10273500I-51000J0D01*
G01*
X10919000Y-10476500D02*
X11021000Y-10578500D01*
X11021000Y-10476500D02*
X10919000Y-10578500D01*
X11021000Y-10527500D02*
G75*
G03*
X11021000Y-10527500I-51000J0D01*
G01*
X10919000Y-10730500D02*
X11021000Y-10832500D01*
X11021000Y-10730500D02*
X10919000Y-10832500D01*
X11021000Y-10781500D02*
G75*
G03*
X11021000Y-10781500I-51000J0D01*
G01*
X10919000Y-10984500D02*
X11021000Y-11086500D01*
X11021000Y-10984500D02*
X10919000Y-11086500D01*
X11021000Y-11035500D02*
G75*
G03*
X11021000Y-11035500I-51000J0D01*
G01*
X10919000Y-11238500D02*
X11021000Y-11340500D01*
X11021000Y-11238500D02*
X10919000Y-11340500D01*
X11021000Y-11289500D02*
G75*
G03*
X11021000Y-11289500I-51000J0D01*
G01*
X10919000Y-11492500D02*
X11021000Y-11594500D01*
X11021000Y-11492500D02*
X10919000Y-11594500D01*
X11021000Y-11543500D02*
G75*
G03*
X11021000Y-11543500I-51000J0D01*
G01*
X10919000Y-11746500D02*
X11021000Y-11848500D01*
X11021000Y-11746500D02*
X10919000Y-11848500D01*
X11021000Y-11797500D02*
G75*
G03*
X11021000Y-11797500I-51000J0D01*
G01*
X10919000Y-12000500D02*
X11021000Y-12102500D01*
X11021000Y-12000500D02*
X10919000Y-12102500D01*
X11021000Y-12051500D02*
G75*
G03*
X11021000Y-12051500I-51000J0D01*
G01*
D19*
X5389500Y-8841000D02*
X5499500Y-8951000D01*
X5499500Y-8841000D02*
X5389500Y-8951000D01*
X5444500Y-8841000D02*
X5444500Y-8951000D01*
X5389500Y-8896000D02*
X5499500Y-8896000D01*
X5389500Y-9095000D02*
X5499500Y-9205000D01*
X5499500Y-9095000D02*
X5389500Y-9205000D01*
X5444500Y-9095000D02*
X5444500Y-9205000D01*
X5389500Y-9150000D02*
X5499500Y-9150000D01*
X5389500Y-9349000D02*
X5499500Y-9459000D01*
X5499500Y-9349000D02*
X5389500Y-9459000D01*
X5444500Y-9349000D02*
X5444500Y-9459000D01*
X5389500Y-9404000D02*
X5499500Y-9404000D01*
X5389500Y-10095000D02*
X5499500Y-10205000D01*
X5499500Y-10095000D02*
X5389500Y-10205000D01*
X5444500Y-10095000D02*
X5444500Y-10205000D01*
X5389500Y-10150000D02*
X5499500Y-10150000D01*
X5389500Y-10349000D02*
X5499500Y-10459000D01*
X5499500Y-10349000D02*
X5389500Y-10459000D01*
X5444500Y-10349000D02*
X5444500Y-10459000D01*
X5389500Y-10404000D02*
X5499500Y-10404000D01*
X5389500Y-10603000D02*
X5499500Y-10713000D01*
X5499500Y-10603000D02*
X5389500Y-10713000D01*
X5444500Y-10603000D02*
X5444500Y-10713000D01*
X5389500Y-10658000D02*
X5499500Y-10658000D01*
X5389500Y-11345000D02*
X5499500Y-11455000D01*
X5499500Y-11345000D02*
X5389500Y-11455000D01*
X5444500Y-11345000D02*
X5444500Y-11455000D01*
X5389500Y-11400000D02*
X5499500Y-11400000D01*
X5389500Y-11599000D02*
X5499500Y-11709000D01*
X5499500Y-11599000D02*
X5389500Y-11709000D01*
X5444500Y-11599000D02*
X5444500Y-11709000D01*
X5389500Y-11654000D02*
X5499500Y-11654000D01*
X5389500Y-11853000D02*
X5499500Y-11963000D01*
X5499500Y-11853000D02*
X5389500Y-11963000D01*
X5444500Y-11853000D02*
X5444500Y-11963000D01*
X5389500Y-11908000D02*
X5499500Y-11908000D01*
X5389500Y-13845000D02*
X5499500Y-13955000D01*
X5499500Y-13845000D02*
X5389500Y-13955000D01*
X5444500Y-13845000D02*
X5444500Y-13955000D01*
X5389500Y-13900000D02*
X5499500Y-13900000D01*
X5389500Y-14099000D02*
X5499500Y-14209000D01*
X5499500Y-14099000D02*
X5389500Y-14209000D01*
X5444500Y-14099000D02*
X5444500Y-14209000D01*
X5389500Y-14154000D02*
X5499500Y-14154000D01*
X5389500Y-14353000D02*
X5499500Y-14463000D01*
X5499500Y-14353000D02*
X5389500Y-14463000D01*
X5444500Y-14353000D02*
X5444500Y-14463000D01*
X5389500Y-14408000D02*
X5499500Y-14408000D01*
X5395000Y-12591000D02*
X5505000Y-12701000D01*
X5505000Y-12591000D02*
X5395000Y-12701000D01*
X5450000Y-12591000D02*
X5450000Y-12701000D01*
X5395000Y-12646000D02*
X5505000Y-12646000D01*
X5395000Y-12845000D02*
X5505000Y-12955000D01*
X5505000Y-12845000D02*
X5395000Y-12955000D01*
X5450000Y-12845000D02*
X5450000Y-12955000D01*
X5395000Y-12900000D02*
X5505000Y-12900000D01*
X5395000Y-13099000D02*
X5505000Y-13209000D01*
X5505000Y-13099000D02*
X5395000Y-13209000D01*
X5450000Y-13099000D02*
X5450000Y-13209000D01*
X5395000Y-13154000D02*
X5505000Y-13154000D01*
X10545000Y-13437000D02*
X10655000Y-13547000D01*
X10655000Y-13437000D02*
X10545000Y-13547000D01*
X10600000Y-13437000D02*
X10600000Y-13547000D01*
X10545000Y-13492000D02*
X10655000Y-13492000D01*
X10545000Y-13691000D02*
X10655000Y-13801000D01*
X10655000Y-13691000D02*
X10545000Y-13801000D01*
X10600000Y-13691000D02*
X10600000Y-13801000D01*
X10545000Y-13746000D02*
X10655000Y-13746000D01*
X10545000Y-13945000D02*
X10655000Y-14055000D01*
X10655000Y-13945000D02*
X10545000Y-14055000D01*
X10600000Y-13945000D02*
X10600000Y-14055000D01*
X10545000Y-14000000D02*
X10655000Y-14000000D01*
X13950500Y-8841000D02*
X14060500Y-8951000D01*
X14060500Y-8841000D02*
X13950500Y-8951000D01*
X14005500Y-8841000D02*
X14005500Y-8951000D01*
X13950500Y-8896000D02*
X14060500Y-8896000D01*
X13950500Y-9095000D02*
X14060500Y-9205000D01*
X14060500Y-9095000D02*
X13950500Y-9205000D01*
X14005500Y-9095000D02*
X14005500Y-9205000D01*
X13950500Y-9150000D02*
X14060500Y-9150000D01*
X13950500Y-9349000D02*
X14060500Y-9459000D01*
X14060500Y-9349000D02*
X13950500Y-9459000D01*
X14005500Y-9349000D02*
X14005500Y-9459000D01*
X13950500Y-9404000D02*
X14060500Y-9404000D01*
X13950500Y-10091000D02*
X14060500Y-10201000D01*
X14060500Y-10091000D02*
X13950500Y-10201000D01*
X14005500Y-10091000D02*
X14005500Y-10201000D01*
X13950500Y-10146000D02*
X14060500Y-10146000D01*
X13950500Y-10345000D02*
X14060500Y-10455000D01*
X14060500Y-10345000D02*
X13950500Y-10455000D01*
X14005500Y-10345000D02*
X14005500Y-10455000D01*
X13950500Y-10400000D02*
X14060500Y-10400000D01*
X13950500Y-10599000D02*
X14060500Y-10709000D01*
X14060500Y-10599000D02*
X13950500Y-10709000D01*
X14005500Y-10599000D02*
X14005500Y-10709000D01*
X13950500Y-10654000D02*
X14060500Y-10654000D01*
X13950500Y-11345000D02*
X14060500Y-11455000D01*
X14060500Y-11345000D02*
X13950500Y-11455000D01*
X14005500Y-11345000D02*
X14005500Y-11455000D01*
X13950500Y-11400000D02*
X14060500Y-11400000D01*
X13950500Y-11599000D02*
X14060500Y-11709000D01*
X14060500Y-11599000D02*
X13950500Y-11709000D01*
X14005500Y-11599000D02*
X14005500Y-11709000D01*
X13950500Y-11654000D02*
X14060500Y-11654000D01*
X13950500Y-11853000D02*
X14060500Y-11963000D01*
X14060500Y-11853000D02*
X13950500Y-11963000D01*
X14005500Y-11853000D02*
X14005500Y-11963000D01*
X13950500Y-11908000D02*
X14060500Y-11908000D01*
X13950500Y-12591000D02*
X14060500Y-12701000D01*
X14060500Y-12591000D02*
X13950500Y-12701000D01*
X14005500Y-12591000D02*
X14005500Y-12701000D01*
X13950500Y-12646000D02*
X14060500Y-12646000D01*
X13950500Y-12845000D02*
X14060500Y-12955000D01*
X14060500Y-12845000D02*
X13950500Y-12955000D01*
X14005500Y-12845000D02*
X14005500Y-12955000D01*
X13950500Y-12900000D02*
X14060500Y-12900000D01*
X13950500Y-13099000D02*
X14060500Y-13209000D01*
X14060500Y-13099000D02*
X13950500Y-13209000D01*
X14005500Y-13099000D02*
X14005500Y-13209000D01*
X13950500Y-13154000D02*
X14060500Y-13154000D01*
X13950500Y-13845000D02*
X14060500Y-13955000D01*
X14060500Y-13845000D02*
X13950500Y-13955000D01*
X14005500Y-13845000D02*
X14005500Y-13955000D01*
X13950500Y-13900000D02*
X14060500Y-13900000D01*
X13950500Y-14099000D02*
X14060500Y-14209000D01*
X14060500Y-14099000D02*
X13950500Y-14209000D01*
X14005500Y-14099000D02*
X14005500Y-14209000D01*
X13950500Y-14154000D02*
X14060500Y-14154000D01*
X13950500Y-14353000D02*
X14060500Y-14463000D01*
X14060500Y-14353000D02*
X13950500Y-14463000D01*
X14005500Y-14353000D02*
X14005500Y-14463000D01*
X13950500Y-14408000D02*
X14060500Y-14408000D01*
D20*
X12285000Y-6695000D02*
X12495000Y-6905000D01*
X12495000Y-6695000D02*
X12285000Y-6905000D01*
X12464247Y-6874247D02*
X12464247Y-6725753D01*
X12315753Y-6725753D01*
X12315753Y-6874247D01*
X12464247Y-6874247D01*
X13065000Y-6695000D02*
X13275000Y-6905000D01*
X13275000Y-6695000D02*
X13065000Y-6905000D01*
X13244247Y-6874247D02*
X13244247Y-6725753D01*
X13095753Y-6725753D01*
X13095753Y-6874247D01*
X13244247Y-6874247D01*
D12*
X5497619Y-15355476D02*
X5497619Y-15155476D01*
X5545238Y-15155476D01*
X5573810Y-15165000D01*
X5592857Y-15184048D01*
X5602381Y-15203095D01*
X5611905Y-15241190D01*
X5611905Y-15269762D01*
X5602381Y-15307857D01*
X5592857Y-15326905D01*
X5573810Y-15345952D01*
X5545238Y-15355476D01*
X5497619Y-15355476D01*
X5697619Y-15355476D02*
X5697619Y-15222143D01*
X5697619Y-15260238D02*
X5707143Y-15241190D01*
X5716667Y-15231667D01*
X5735714Y-15222143D01*
X5754762Y-15222143D01*
X5821428Y-15355476D02*
X5821428Y-15222143D01*
X5821428Y-15155476D02*
X5811905Y-15165000D01*
X5821428Y-15174524D01*
X5830952Y-15165000D01*
X5821428Y-15155476D01*
X5821428Y-15174524D01*
X5945238Y-15355476D02*
X5926190Y-15345952D01*
X5916667Y-15326905D01*
X5916667Y-15155476D01*
X6050000Y-15355476D02*
X6030952Y-15345952D01*
X6021428Y-15326905D01*
X6021428Y-15155476D01*
X6278571Y-15355476D02*
X6278571Y-15155476D01*
X6345238Y-15298333D01*
X6411905Y-15155476D01*
X6411905Y-15355476D01*
X6592857Y-15355476D02*
X6592857Y-15250714D01*
X6583333Y-15231667D01*
X6564286Y-15222143D01*
X6526190Y-15222143D01*
X6507143Y-15231667D01*
X6592857Y-15345952D02*
X6573809Y-15355476D01*
X6526190Y-15355476D01*
X6507143Y-15345952D01*
X6497619Y-15326905D01*
X6497619Y-15307857D01*
X6507143Y-15288809D01*
X6526190Y-15279286D01*
X6573809Y-15279286D01*
X6592857Y-15269762D01*
X6688095Y-15222143D02*
X6688095Y-15422143D01*
X6688095Y-15231667D02*
X6707143Y-15222143D01*
X6745238Y-15222143D01*
X6764286Y-15231667D01*
X6773809Y-15241190D01*
X6783333Y-15260238D01*
X6783333Y-15317381D01*
X6773809Y-15336428D01*
X6764286Y-15345952D01*
X6745238Y-15355476D01*
X6707143Y-15355476D01*
X6688095Y-15345952D01*
X6869048Y-15336428D02*
X6878571Y-15345952D01*
X6869048Y-15355476D01*
X6859524Y-15345952D01*
X6869048Y-15336428D01*
X6869048Y-15355476D01*
X6869048Y-15231667D02*
X6878571Y-15241190D01*
X6869048Y-15250714D01*
X6859524Y-15241190D01*
X6869048Y-15231667D01*
X6869048Y-15250714D01*
D13*
X5200000Y-15665000D02*
X5240000Y-15705000D01*
X5240000Y-15665000D02*
X5200000Y-15705000D01*
D12*
X5535714Y-15575476D02*
X5554762Y-15575476D01*
X5573810Y-15585000D01*
X5583333Y-15594524D01*
X5592857Y-15613571D01*
X5602381Y-15651667D01*
X5602381Y-15699286D01*
X5592857Y-15737381D01*
X5583333Y-15756428D01*
X5573810Y-15765952D01*
X5554762Y-15775476D01*
X5535714Y-15775476D01*
X5516667Y-15765952D01*
X5507143Y-15756428D01*
X5497619Y-15737381D01*
X5488095Y-15699286D01*
X5488095Y-15651667D01*
X5497619Y-15613571D01*
X5507143Y-15594524D01*
X5516667Y-15585000D01*
X5535714Y-15575476D01*
X5688095Y-15756428D02*
X5697619Y-15765952D01*
X5688095Y-15775476D01*
X5678571Y-15765952D01*
X5688095Y-15756428D01*
X5688095Y-15775476D01*
X5869048Y-15642143D02*
X5869048Y-15775476D01*
X5821428Y-15565952D02*
X5773809Y-15708809D01*
X5897619Y-15708809D01*
X6011905Y-15575476D02*
X6030952Y-15575476D01*
X6050000Y-15585000D01*
X6059524Y-15594524D01*
X6069048Y-15613571D01*
X6078571Y-15651667D01*
X6078571Y-15699286D01*
X6069048Y-15737381D01*
X6059524Y-15756428D01*
X6050000Y-15765952D01*
X6030952Y-15775476D01*
X6011905Y-15775476D01*
X5992857Y-15765952D01*
X5983333Y-15756428D01*
X5973809Y-15737381D01*
X5964286Y-15699286D01*
X5964286Y-15651667D01*
X5973809Y-15613571D01*
X5983333Y-15594524D01*
X5992857Y-15585000D01*
X6011905Y-15575476D01*
X6202381Y-15575476D02*
X6221428Y-15575476D01*
X6240476Y-15585000D01*
X6250000Y-15594524D01*
X6259524Y-15613571D01*
X6269048Y-15651667D01*
X6269048Y-15699286D01*
X6259524Y-15737381D01*
X6250000Y-15756428D01*
X6240476Y-15765952D01*
X6221428Y-15775476D01*
X6202381Y-15775476D01*
X6183333Y-15765952D01*
X6173809Y-15756428D01*
X6164286Y-15737381D01*
X6154762Y-15699286D01*
X6154762Y-15651667D01*
X6164286Y-15613571D01*
X6173809Y-15594524D01*
X6183333Y-15585000D01*
X6202381Y-15575476D01*
X6354762Y-15775476D02*
X6354762Y-15642143D01*
X6354762Y-15661190D02*
X6364286Y-15651667D01*
X6383333Y-15642143D01*
X6411905Y-15642143D01*
X6430952Y-15651667D01*
X6440476Y-15670714D01*
X6440476Y-15775476D01*
X6440476Y-15670714D02*
X6450000Y-15651667D01*
X6469048Y-15642143D01*
X6497619Y-15642143D01*
X6516667Y-15651667D01*
X6526190Y-15670714D01*
X6526190Y-15775476D01*
X6621428Y-15775476D02*
X6621428Y-15642143D01*
X6621428Y-15661190D02*
X6630952Y-15651667D01*
X6650000Y-15642143D01*
X6678571Y-15642143D01*
X6697619Y-15651667D01*
X6707143Y-15670714D01*
X6707143Y-15775476D01*
X6707143Y-15670714D02*
X6716667Y-15651667D01*
X6735714Y-15642143D01*
X6764286Y-15642143D01*
X6783333Y-15651667D01*
X6792857Y-15670714D01*
X6792857Y-15775476D01*
X7183333Y-15565952D02*
X7011905Y-15823095D01*
X7440476Y-15575476D02*
X7459524Y-15575476D01*
X7478571Y-15585000D01*
X7488095Y-15594524D01*
X7497619Y-15613571D01*
X7507143Y-15651667D01*
X7507143Y-15699286D01*
X7497619Y-15737381D01*
X7488095Y-15756428D01*
X7478571Y-15765952D01*
X7459524Y-15775476D01*
X7440476Y-15775476D01*
X7421428Y-15765952D01*
X7411905Y-15756428D01*
X7402381Y-15737381D01*
X7392857Y-15699286D01*
X7392857Y-15651667D01*
X7402381Y-15613571D01*
X7411905Y-15594524D01*
X7421428Y-15585000D01*
X7440476Y-15575476D01*
X7592857Y-15756428D02*
X7602381Y-15765952D01*
X7592857Y-15775476D01*
X7583333Y-15765952D01*
X7592857Y-15756428D01*
X7592857Y-15775476D01*
X7726190Y-15575476D02*
X7745238Y-15575476D01*
X7764286Y-15585000D01*
X7773809Y-15594524D01*
X7783333Y-15613571D01*
X7792857Y-15651667D01*
X7792857Y-15699286D01*
X7783333Y-15737381D01*
X7773809Y-15756428D01*
X7764286Y-15765952D01*
X7745238Y-15775476D01*
X7726190Y-15775476D01*
X7707143Y-15765952D01*
X7697619Y-15756428D01*
X7688095Y-15737381D01*
X7678571Y-15699286D01*
X7678571Y-15651667D01*
X7688095Y-15613571D01*
X7697619Y-15594524D01*
X7707143Y-15585000D01*
X7726190Y-15575476D01*
X7983333Y-15775476D02*
X7869048Y-15775476D01*
X7926190Y-15775476D02*
X7926190Y-15575476D01*
X7907143Y-15604048D01*
X7888095Y-15623095D01*
X7869048Y-15632619D01*
X8164286Y-15575476D02*
X8069048Y-15575476D01*
X8059524Y-15670714D01*
X8069048Y-15661190D01*
X8088095Y-15651667D01*
X8135714Y-15651667D01*
X8154762Y-15661190D01*
X8164286Y-15670714D01*
X8173809Y-15689762D01*
X8173809Y-15737381D01*
X8164286Y-15756428D01*
X8154762Y-15765952D01*
X8135714Y-15775476D01*
X8088095Y-15775476D01*
X8069048Y-15765952D01*
X8059524Y-15756428D01*
X8240476Y-15575476D02*
X8373809Y-15575476D01*
X8288095Y-15775476D01*
X8440476Y-15575476D02*
X8440476Y-15613571D01*
X8516667Y-15575476D02*
X8516667Y-15613571D01*
X8811905Y-15851667D02*
X8802381Y-15842143D01*
X8783333Y-15813571D01*
X8773810Y-15794524D01*
X8764286Y-15765952D01*
X8754762Y-15718333D01*
X8754762Y-15680238D01*
X8764286Y-15632619D01*
X8773810Y-15604048D01*
X8783333Y-15585000D01*
X8802381Y-15556428D01*
X8811905Y-15546905D01*
X8973810Y-15642143D02*
X8973810Y-15775476D01*
X8926190Y-15565952D02*
X8878571Y-15708809D01*
X9002381Y-15708809D01*
X9164286Y-15575476D02*
X9126190Y-15575476D01*
X9107143Y-15585000D01*
X9097619Y-15594524D01*
X9078571Y-15623095D01*
X9069048Y-15661190D01*
X9069048Y-15737381D01*
X9078571Y-15756428D01*
X9088095Y-15765952D01*
X9107143Y-15775476D01*
X9145238Y-15775476D01*
X9164286Y-15765952D01*
X9173810Y-15756428D01*
X9183333Y-15737381D01*
X9183333Y-15689762D01*
X9173810Y-15670714D01*
X9164286Y-15661190D01*
X9145238Y-15651667D01*
X9107143Y-15651667D01*
X9088095Y-15661190D01*
X9078571Y-15670714D01*
X9069048Y-15689762D01*
X9421429Y-15775476D02*
X9421429Y-15575476D01*
X9507143Y-15775476D02*
X9507143Y-15670714D01*
X9497619Y-15651667D01*
X9478571Y-15642143D01*
X9450000Y-15642143D01*
X9430952Y-15651667D01*
X9421429Y-15661190D01*
X9630952Y-15775476D02*
X9611905Y-15765952D01*
X9602381Y-15756428D01*
X9592857Y-15737381D01*
X9592857Y-15680238D01*
X9602381Y-15661190D01*
X9611905Y-15651667D01*
X9630952Y-15642143D01*
X9659524Y-15642143D01*
X9678571Y-15651667D01*
X9688095Y-15661190D01*
X9697619Y-15680238D01*
X9697619Y-15737381D01*
X9688095Y-15756428D01*
X9678571Y-15765952D01*
X9659524Y-15775476D01*
X9630952Y-15775476D01*
X9811905Y-15775476D02*
X9792857Y-15765952D01*
X9783333Y-15746905D01*
X9783333Y-15575476D01*
X9964286Y-15765952D02*
X9945238Y-15775476D01*
X9907143Y-15775476D01*
X9888095Y-15765952D01*
X9878571Y-15746905D01*
X9878571Y-15670714D01*
X9888095Y-15651667D01*
X9907143Y-15642143D01*
X9945238Y-15642143D01*
X9964286Y-15651667D01*
X9973810Y-15670714D01*
X9973810Y-15689762D01*
X9878571Y-15708809D01*
X10050000Y-15765952D02*
X10069048Y-15775476D01*
X10107143Y-15775476D01*
X10126190Y-15765952D01*
X10135714Y-15746905D01*
X10135714Y-15737381D01*
X10126190Y-15718333D01*
X10107143Y-15708809D01*
X10078571Y-15708809D01*
X10059524Y-15699286D01*
X10050000Y-15680238D01*
X10050000Y-15670714D01*
X10059524Y-15651667D01*
X10078571Y-15642143D01*
X10107143Y-15642143D01*
X10126190Y-15651667D01*
X10202381Y-15851667D02*
X10211905Y-15842143D01*
X10230952Y-15813571D01*
X10240476Y-15794524D01*
X10250000Y-15765952D01*
X10259524Y-15718333D01*
X10259524Y-15680238D01*
X10250000Y-15632619D01*
X10240476Y-15604048D01*
X10230952Y-15585000D01*
X10211905Y-15556428D01*
X10202381Y-15546905D01*
D14*
X5240000Y-15949000D02*
G75*
G03*
X5240000Y-15949000I-35000J0D01*
G01*
D12*
X5535714Y-15839476D02*
X5554762Y-15839476D01*
X5573810Y-15849000D01*
X5583333Y-15858524D01*
X5592857Y-15877571D01*
X5602381Y-15915667D01*
X5602381Y-15963286D01*
X5592857Y-16001381D01*
X5583333Y-16020428D01*
X5573810Y-16029952D01*
X5554762Y-16039476D01*
X5535714Y-16039476D01*
X5516667Y-16029952D01*
X5507143Y-16020428D01*
X5497619Y-16001381D01*
X5488095Y-15963286D01*
X5488095Y-15915667D01*
X5497619Y-15877571D01*
X5507143Y-15858524D01*
X5516667Y-15849000D01*
X5535714Y-15839476D01*
X5688095Y-16020428D02*
X5697619Y-16029952D01*
X5688095Y-16039476D01*
X5678571Y-16029952D01*
X5688095Y-16020428D01*
X5688095Y-16039476D01*
X5764286Y-15839476D02*
X5897619Y-15839476D01*
X5811905Y-16039476D01*
X6011905Y-15839476D02*
X6030952Y-15839476D01*
X6050000Y-15849000D01*
X6059524Y-15858524D01*
X6069048Y-15877571D01*
X6078571Y-15915667D01*
X6078571Y-15963286D01*
X6069048Y-16001381D01*
X6059524Y-16020428D01*
X6050000Y-16029952D01*
X6030952Y-16039476D01*
X6011905Y-16039476D01*
X5992857Y-16029952D01*
X5983333Y-16020428D01*
X5973809Y-16001381D01*
X5964286Y-15963286D01*
X5964286Y-15915667D01*
X5973809Y-15877571D01*
X5983333Y-15858524D01*
X5992857Y-15849000D01*
X6011905Y-15839476D01*
X6202381Y-15839476D02*
X6221428Y-15839476D01*
X6240476Y-15849000D01*
X6250000Y-15858524D01*
X6259524Y-15877571D01*
X6269048Y-15915667D01*
X6269048Y-15963286D01*
X6259524Y-16001381D01*
X6250000Y-16020428D01*
X6240476Y-16029952D01*
X6221428Y-16039476D01*
X6202381Y-16039476D01*
X6183333Y-16029952D01*
X6173809Y-16020428D01*
X6164286Y-16001381D01*
X6154762Y-15963286D01*
X6154762Y-15915667D01*
X6164286Y-15877571D01*
X6173809Y-15858524D01*
X6183333Y-15849000D01*
X6202381Y-15839476D01*
X6354762Y-16039476D02*
X6354762Y-15906143D01*
X6354762Y-15925190D02*
X6364286Y-15915667D01*
X6383333Y-15906143D01*
X6411905Y-15906143D01*
X6430952Y-15915667D01*
X6440476Y-15934714D01*
X6440476Y-16039476D01*
X6440476Y-15934714D02*
X6450000Y-15915667D01*
X6469048Y-15906143D01*
X6497619Y-15906143D01*
X6516667Y-15915667D01*
X6526190Y-15934714D01*
X6526190Y-16039476D01*
X6621428Y-16039476D02*
X6621428Y-15906143D01*
X6621428Y-15925190D02*
X6630952Y-15915667D01*
X6650000Y-15906143D01*
X6678571Y-15906143D01*
X6697619Y-15915667D01*
X6707143Y-15934714D01*
X6707143Y-16039476D01*
X6707143Y-15934714D02*
X6716667Y-15915667D01*
X6735714Y-15906143D01*
X6764286Y-15906143D01*
X6783333Y-15915667D01*
X6792857Y-15934714D01*
X6792857Y-16039476D01*
X7183333Y-15829952D02*
X7011905Y-16087095D01*
X7440476Y-15839476D02*
X7459524Y-15839476D01*
X7478571Y-15849000D01*
X7488095Y-15858524D01*
X7497619Y-15877571D01*
X7507143Y-15915667D01*
X7507143Y-15963286D01*
X7497619Y-16001381D01*
X7488095Y-16020428D01*
X7478571Y-16029952D01*
X7459524Y-16039476D01*
X7440476Y-16039476D01*
X7421428Y-16029952D01*
X7411905Y-16020428D01*
X7402381Y-16001381D01*
X7392857Y-15963286D01*
X7392857Y-15915667D01*
X7402381Y-15877571D01*
X7411905Y-15858524D01*
X7421428Y-15849000D01*
X7440476Y-15839476D01*
X7592857Y-16020428D02*
X7602381Y-16029952D01*
X7592857Y-16039476D01*
X7583333Y-16029952D01*
X7592857Y-16020428D01*
X7592857Y-16039476D01*
X7726190Y-15839476D02*
X7745238Y-15839476D01*
X7764286Y-15849000D01*
X7773809Y-15858524D01*
X7783333Y-15877571D01*
X7792857Y-15915667D01*
X7792857Y-15963286D01*
X7783333Y-16001381D01*
X7773809Y-16020428D01*
X7764286Y-16029952D01*
X7745238Y-16039476D01*
X7726190Y-16039476D01*
X7707143Y-16029952D01*
X7697619Y-16020428D01*
X7688095Y-16001381D01*
X7678571Y-15963286D01*
X7678571Y-15915667D01*
X7688095Y-15877571D01*
X7697619Y-15858524D01*
X7707143Y-15849000D01*
X7726190Y-15839476D01*
X7869048Y-15858524D02*
X7878571Y-15849000D01*
X7897619Y-15839476D01*
X7945238Y-15839476D01*
X7964286Y-15849000D01*
X7973809Y-15858524D01*
X7983333Y-15877571D01*
X7983333Y-15896619D01*
X7973809Y-15925190D01*
X7859524Y-16039476D01*
X7983333Y-16039476D01*
X8050000Y-15839476D02*
X8183333Y-15839476D01*
X8097619Y-16039476D01*
X8345238Y-15839476D02*
X8307143Y-15839476D01*
X8288095Y-15849000D01*
X8278571Y-15858524D01*
X8259524Y-15887095D01*
X8250000Y-15925190D01*
X8250000Y-16001381D01*
X8259524Y-16020428D01*
X8269048Y-16029952D01*
X8288095Y-16039476D01*
X8326190Y-16039476D01*
X8345238Y-16029952D01*
X8354762Y-16020428D01*
X8364286Y-16001381D01*
X8364286Y-15953762D01*
X8354762Y-15934714D01*
X8345238Y-15925190D01*
X8326190Y-15915667D01*
X8288095Y-15915667D01*
X8269048Y-15925190D01*
X8259524Y-15934714D01*
X8250000Y-15953762D01*
X8440476Y-15839476D02*
X8440476Y-15877571D01*
X8516667Y-15839476D02*
X8516667Y-15877571D01*
X8811905Y-16115667D02*
X8802381Y-16106143D01*
X8783333Y-16077571D01*
X8773810Y-16058524D01*
X8764286Y-16029952D01*
X8754762Y-15982333D01*
X8754762Y-15944238D01*
X8764286Y-15896619D01*
X8773810Y-15868048D01*
X8783333Y-15849000D01*
X8802381Y-15820428D01*
X8811905Y-15810905D01*
X8869048Y-15839476D02*
X8992857Y-15839476D01*
X8926190Y-15915667D01*
X8954762Y-15915667D01*
X8973810Y-15925190D01*
X8983333Y-15934714D01*
X8992857Y-15953762D01*
X8992857Y-16001381D01*
X8983333Y-16020428D01*
X8973810Y-16029952D01*
X8954762Y-16039476D01*
X8897619Y-16039476D01*
X8878571Y-16029952D01*
X8869048Y-16020428D01*
X9069048Y-15858524D02*
X9078571Y-15849000D01*
X9097619Y-15839476D01*
X9145238Y-15839476D01*
X9164286Y-15849000D01*
X9173810Y-15858524D01*
X9183333Y-15877571D01*
X9183333Y-15896619D01*
X9173810Y-15925190D01*
X9059524Y-16039476D01*
X9183333Y-16039476D01*
X9421429Y-16039476D02*
X9421429Y-15839476D01*
X9507143Y-16039476D02*
X9507143Y-15934714D01*
X9497619Y-15915667D01*
X9478571Y-15906143D01*
X9450000Y-15906143D01*
X9430952Y-15915667D01*
X9421429Y-15925190D01*
X9630952Y-16039476D02*
X9611905Y-16029952D01*
X9602381Y-16020428D01*
X9592857Y-16001381D01*
X9592857Y-15944238D01*
X9602381Y-15925190D01*
X9611905Y-15915667D01*
X9630952Y-15906143D01*
X9659524Y-15906143D01*
X9678571Y-15915667D01*
X9688095Y-15925190D01*
X9697619Y-15944238D01*
X9697619Y-16001381D01*
X9688095Y-16020428D01*
X9678571Y-16029952D01*
X9659524Y-16039476D01*
X9630952Y-16039476D01*
X9811905Y-16039476D02*
X9792857Y-16029952D01*
X9783333Y-16010905D01*
X9783333Y-15839476D01*
X9964286Y-16029952D02*
X9945238Y-16039476D01*
X9907143Y-16039476D01*
X9888095Y-16029952D01*
X9878571Y-16010905D01*
X9878571Y-15934714D01*
X9888095Y-15915667D01*
X9907143Y-15906143D01*
X9945238Y-15906143D01*
X9964286Y-15915667D01*
X9973810Y-15934714D01*
X9973810Y-15953762D01*
X9878571Y-15972809D01*
X10050000Y-16029952D02*
X10069048Y-16039476D01*
X10107143Y-16039476D01*
X10126190Y-16029952D01*
X10135714Y-16010905D01*
X10135714Y-16001381D01*
X10126190Y-15982333D01*
X10107143Y-15972809D01*
X10078571Y-15972809D01*
X10059524Y-15963286D01*
X10050000Y-15944238D01*
X10050000Y-15934714D01*
X10059524Y-15915667D01*
X10078571Y-15906143D01*
X10107143Y-15906143D01*
X10126190Y-15915667D01*
X10202381Y-16115667D02*
X10211905Y-16106143D01*
X10230952Y-16077571D01*
X10240476Y-16058524D01*
X10250000Y-16029952D01*
X10259524Y-15982333D01*
X10259524Y-15944238D01*
X10250000Y-15896619D01*
X10240476Y-15868048D01*
X10230952Y-15849000D01*
X10211905Y-15820428D01*
X10202381Y-15810905D01*
D15*
X5200000Y-16173000D02*
X5200000Y-16253000D01*
X5160000Y-16213000D02*
X5240000Y-16213000D01*
D12*
X5535714Y-16103476D02*
X5554762Y-16103476D01*
X5573810Y-16113000D01*
X5583333Y-16122524D01*
X5592857Y-16141571D01*
X5602381Y-16179667D01*
X5602381Y-16227286D01*
X5592857Y-16265381D01*
X5583333Y-16284428D01*
X5573810Y-16293952D01*
X5554762Y-16303476D01*
X5535714Y-16303476D01*
X5516667Y-16293952D01*
X5507143Y-16284428D01*
X5497619Y-16265381D01*
X5488095Y-16227286D01*
X5488095Y-16179667D01*
X5497619Y-16141571D01*
X5507143Y-16122524D01*
X5516667Y-16113000D01*
X5535714Y-16103476D01*
X5688095Y-16284428D02*
X5697619Y-16293952D01*
X5688095Y-16303476D01*
X5678571Y-16293952D01*
X5688095Y-16284428D01*
X5688095Y-16303476D01*
X5811905Y-16189190D02*
X5792857Y-16179667D01*
X5783333Y-16170143D01*
X5773809Y-16151095D01*
X5773809Y-16141571D01*
X5783333Y-16122524D01*
X5792857Y-16113000D01*
X5811905Y-16103476D01*
X5850000Y-16103476D01*
X5869048Y-16113000D01*
X5878571Y-16122524D01*
X5888095Y-16141571D01*
X5888095Y-16151095D01*
X5878571Y-16170143D01*
X5869048Y-16179667D01*
X5850000Y-16189190D01*
X5811905Y-16189190D01*
X5792857Y-16198714D01*
X5783333Y-16208238D01*
X5773809Y-16227286D01*
X5773809Y-16265381D01*
X5783333Y-16284428D01*
X5792857Y-16293952D01*
X5811905Y-16303476D01*
X5850000Y-16303476D01*
X5869048Y-16293952D01*
X5878571Y-16284428D01*
X5888095Y-16265381D01*
X5888095Y-16227286D01*
X5878571Y-16208238D01*
X5869048Y-16198714D01*
X5850000Y-16189190D01*
X6011905Y-16103476D02*
X6030952Y-16103476D01*
X6050000Y-16113000D01*
X6059524Y-16122524D01*
X6069048Y-16141571D01*
X6078571Y-16179667D01*
X6078571Y-16227286D01*
X6069048Y-16265381D01*
X6059524Y-16284428D01*
X6050000Y-16293952D01*
X6030952Y-16303476D01*
X6011905Y-16303476D01*
X5992857Y-16293952D01*
X5983333Y-16284428D01*
X5973809Y-16265381D01*
X5964286Y-16227286D01*
X5964286Y-16179667D01*
X5973809Y-16141571D01*
X5983333Y-16122524D01*
X5992857Y-16113000D01*
X6011905Y-16103476D01*
X6202381Y-16103476D02*
X6221428Y-16103476D01*
X6240476Y-16113000D01*
X6250000Y-16122524D01*
X6259524Y-16141571D01*
X6269048Y-16179667D01*
X6269048Y-16227286D01*
X6259524Y-16265381D01*
X6250000Y-16284428D01*
X6240476Y-16293952D01*
X6221428Y-16303476D01*
X6202381Y-16303476D01*
X6183333Y-16293952D01*
X6173809Y-16284428D01*
X6164286Y-16265381D01*
X6154762Y-16227286D01*
X6154762Y-16179667D01*
X6164286Y-16141571D01*
X6173809Y-16122524D01*
X6183333Y-16113000D01*
X6202381Y-16103476D01*
X6354762Y-16303476D02*
X6354762Y-16170143D01*
X6354762Y-16189190D02*
X6364286Y-16179667D01*
X6383333Y-16170143D01*
X6411905Y-16170143D01*
X6430952Y-16179667D01*
X6440476Y-16198714D01*
X6440476Y-16303476D01*
X6440476Y-16198714D02*
X6450000Y-16179667D01*
X6469048Y-16170143D01*
X6497619Y-16170143D01*
X6516667Y-16179667D01*
X6526190Y-16198714D01*
X6526190Y-16303476D01*
X6621428Y-16303476D02*
X6621428Y-16170143D01*
X6621428Y-16189190D02*
X6630952Y-16179667D01*
X6650000Y-16170143D01*
X6678571Y-16170143D01*
X6697619Y-16179667D01*
X6707143Y-16198714D01*
X6707143Y-16303476D01*
X6707143Y-16198714D02*
X6716667Y-16179667D01*
X6735714Y-16170143D01*
X6764286Y-16170143D01*
X6783333Y-16179667D01*
X6792857Y-16198714D01*
X6792857Y-16303476D01*
X7183333Y-16093952D02*
X7011905Y-16351095D01*
X7440476Y-16103476D02*
X7459524Y-16103476D01*
X7478571Y-16113000D01*
X7488095Y-16122524D01*
X7497619Y-16141571D01*
X7507143Y-16179667D01*
X7507143Y-16227286D01*
X7497619Y-16265381D01*
X7488095Y-16284428D01*
X7478571Y-16293952D01*
X7459524Y-16303476D01*
X7440476Y-16303476D01*
X7421428Y-16293952D01*
X7411905Y-16284428D01*
X7402381Y-16265381D01*
X7392857Y-16227286D01*
X7392857Y-16179667D01*
X7402381Y-16141571D01*
X7411905Y-16122524D01*
X7421428Y-16113000D01*
X7440476Y-16103476D01*
X7592857Y-16284428D02*
X7602381Y-16293952D01*
X7592857Y-16303476D01*
X7583333Y-16293952D01*
X7592857Y-16284428D01*
X7592857Y-16303476D01*
X7726190Y-16103476D02*
X7745238Y-16103476D01*
X7764286Y-16113000D01*
X7773809Y-16122524D01*
X7783333Y-16141571D01*
X7792857Y-16179667D01*
X7792857Y-16227286D01*
X7783333Y-16265381D01*
X7773809Y-16284428D01*
X7764286Y-16293952D01*
X7745238Y-16303476D01*
X7726190Y-16303476D01*
X7707143Y-16293952D01*
X7697619Y-16284428D01*
X7688095Y-16265381D01*
X7678571Y-16227286D01*
X7678571Y-16179667D01*
X7688095Y-16141571D01*
X7697619Y-16122524D01*
X7707143Y-16113000D01*
X7726190Y-16103476D01*
X7859524Y-16103476D02*
X7983333Y-16103476D01*
X7916667Y-16179667D01*
X7945238Y-16179667D01*
X7964286Y-16189190D01*
X7973809Y-16198714D01*
X7983333Y-16217762D01*
X7983333Y-16265381D01*
X7973809Y-16284428D01*
X7964286Y-16293952D01*
X7945238Y-16303476D01*
X7888095Y-16303476D01*
X7869048Y-16293952D01*
X7859524Y-16284428D01*
X8173809Y-16303476D02*
X8059524Y-16303476D01*
X8116667Y-16303476D02*
X8116667Y-16103476D01*
X8097619Y-16132048D01*
X8078571Y-16151095D01*
X8059524Y-16160619D01*
X8354762Y-16103476D02*
X8259524Y-16103476D01*
X8250000Y-16198714D01*
X8259524Y-16189190D01*
X8278571Y-16179667D01*
X8326190Y-16179667D01*
X8345238Y-16189190D01*
X8354762Y-16198714D01*
X8364286Y-16217762D01*
X8364286Y-16265381D01*
X8354762Y-16284428D01*
X8345238Y-16293952D01*
X8326190Y-16303476D01*
X8278571Y-16303476D01*
X8259524Y-16293952D01*
X8250000Y-16284428D01*
X8440476Y-16103476D02*
X8440476Y-16141571D01*
X8516667Y-16103476D02*
X8516667Y-16141571D01*
X8811905Y-16379667D02*
X8802381Y-16370143D01*
X8783333Y-16341571D01*
X8773810Y-16322524D01*
X8764286Y-16293952D01*
X8754762Y-16246333D01*
X8754762Y-16208238D01*
X8764286Y-16160619D01*
X8773810Y-16132048D01*
X8783333Y-16113000D01*
X8802381Y-16084428D01*
X8811905Y-16074905D01*
X8992857Y-16303476D02*
X8878571Y-16303476D01*
X8935714Y-16303476D02*
X8935714Y-16103476D01*
X8916667Y-16132048D01*
X8897619Y-16151095D01*
X8878571Y-16160619D01*
X9107143Y-16189190D02*
X9088095Y-16179667D01*
X9078571Y-16170143D01*
X9069048Y-16151095D01*
X9069048Y-16141571D01*
X9078571Y-16122524D01*
X9088095Y-16113000D01*
X9107143Y-16103476D01*
X9145238Y-16103476D01*
X9164286Y-16113000D01*
X9173810Y-16122524D01*
X9183333Y-16141571D01*
X9183333Y-16151095D01*
X9173810Y-16170143D01*
X9164286Y-16179667D01*
X9145238Y-16189190D01*
X9107143Y-16189190D01*
X9088095Y-16198714D01*
X9078571Y-16208238D01*
X9069048Y-16227286D01*
X9069048Y-16265381D01*
X9078571Y-16284428D01*
X9088095Y-16293952D01*
X9107143Y-16303476D01*
X9145238Y-16303476D01*
X9164286Y-16293952D01*
X9173810Y-16284428D01*
X9183333Y-16265381D01*
X9183333Y-16227286D01*
X9173810Y-16208238D01*
X9164286Y-16198714D01*
X9145238Y-16189190D01*
X9421429Y-16303476D02*
X9421429Y-16103476D01*
X9507143Y-16303476D02*
X9507143Y-16198714D01*
X9497619Y-16179667D01*
X9478571Y-16170143D01*
X9450000Y-16170143D01*
X9430952Y-16179667D01*
X9421429Y-16189190D01*
X9630952Y-16303476D02*
X9611905Y-16293952D01*
X9602381Y-16284428D01*
X9592857Y-16265381D01*
X9592857Y-16208238D01*
X9602381Y-16189190D01*
X9611905Y-16179667D01*
X9630952Y-16170143D01*
X9659524Y-16170143D01*
X9678571Y-16179667D01*
X9688095Y-16189190D01*
X9697619Y-16208238D01*
X9697619Y-16265381D01*
X9688095Y-16284428D01*
X9678571Y-16293952D01*
X9659524Y-16303476D01*
X9630952Y-16303476D01*
X9811905Y-16303476D02*
X9792857Y-16293952D01*
X9783333Y-16274905D01*
X9783333Y-16103476D01*
X9964286Y-16293952D02*
X9945238Y-16303476D01*
X9907143Y-16303476D01*
X9888095Y-16293952D01*
X9878571Y-16274905D01*
X9878571Y-16198714D01*
X9888095Y-16179667D01*
X9907143Y-16170143D01*
X9945238Y-16170143D01*
X9964286Y-16179667D01*
X9973810Y-16198714D01*
X9973810Y-16217762D01*
X9878571Y-16236809D01*
X10050000Y-16293952D02*
X10069048Y-16303476D01*
X10107143Y-16303476D01*
X10126190Y-16293952D01*
X10135714Y-16274905D01*
X10135714Y-16265381D01*
X10126190Y-16246333D01*
X10107143Y-16236809D01*
X10078571Y-16236809D01*
X10059524Y-16227286D01*
X10050000Y-16208238D01*
X10050000Y-16198714D01*
X10059524Y-16179667D01*
X10078571Y-16170143D01*
X10107143Y-16170143D01*
X10126190Y-16179667D01*
X10373810Y-16227286D02*
X10526190Y-16227286D01*
X10450000Y-16303476D02*
X10450000Y-16151095D01*
X10878571Y-16303476D02*
X10764286Y-16303476D01*
X10821429Y-16303476D02*
X10821429Y-16103476D01*
X10802381Y-16132048D01*
X10783333Y-16151095D01*
X10764286Y-16160619D01*
X11002381Y-16103476D02*
X11021429Y-16103476D01*
X11040476Y-16113000D01*
X11050000Y-16122524D01*
X11059524Y-16141571D01*
X11069048Y-16179667D01*
X11069048Y-16227286D01*
X11059524Y-16265381D01*
X11050000Y-16284428D01*
X11040476Y-16293952D01*
X11021429Y-16303476D01*
X11002381Y-16303476D01*
X10983333Y-16293952D01*
X10973810Y-16284428D01*
X10964286Y-16265381D01*
X10954762Y-16227286D01*
X10954762Y-16179667D01*
X10964286Y-16141571D01*
X10973810Y-16122524D01*
X10983333Y-16113000D01*
X11002381Y-16103476D01*
X11297619Y-16293952D02*
X11316667Y-16303476D01*
X11354762Y-16303476D01*
X11373809Y-16293952D01*
X11383333Y-16274905D01*
X11383333Y-16265381D01*
X11373809Y-16246333D01*
X11354762Y-16236809D01*
X11326190Y-16236809D01*
X11307143Y-16227286D01*
X11297619Y-16208238D01*
X11297619Y-16198714D01*
X11307143Y-16179667D01*
X11326190Y-16170143D01*
X11354762Y-16170143D01*
X11373809Y-16179667D01*
X11497619Y-16303476D02*
X11478571Y-16293952D01*
X11469048Y-16274905D01*
X11469048Y-16103476D01*
X11602381Y-16303476D02*
X11583333Y-16293952D01*
X11573809Y-16284428D01*
X11564286Y-16265381D01*
X11564286Y-16208238D01*
X11573809Y-16189190D01*
X11583333Y-16179667D01*
X11602381Y-16170143D01*
X11630952Y-16170143D01*
X11650000Y-16179667D01*
X11659524Y-16189190D01*
X11669048Y-16208238D01*
X11669048Y-16265381D01*
X11659524Y-16284428D01*
X11650000Y-16293952D01*
X11630952Y-16303476D01*
X11602381Y-16303476D01*
X11726190Y-16170143D02*
X11802381Y-16170143D01*
X11754762Y-16103476D02*
X11754762Y-16274905D01*
X11764286Y-16293952D01*
X11783333Y-16303476D01*
X11802381Y-16303476D01*
X11859524Y-16293952D02*
X11878571Y-16303476D01*
X11916667Y-16303476D01*
X11935714Y-16293952D01*
X11945238Y-16274905D01*
X11945238Y-16265381D01*
X11935714Y-16246333D01*
X11916667Y-16236809D01*
X11888095Y-16236809D01*
X11869048Y-16227286D01*
X11859524Y-16208238D01*
X11859524Y-16198714D01*
X11869048Y-16179667D01*
X11888095Y-16170143D01*
X11916667Y-16170143D01*
X11935714Y-16179667D01*
X12011905Y-16379667D02*
X12021428Y-16370143D01*
X12040476Y-16341571D01*
X12050000Y-16322524D01*
X12059524Y-16293952D01*
X12069048Y-16246333D01*
X12069048Y-16208238D01*
X12059524Y-16160619D01*
X12050000Y-16132048D01*
X12040476Y-16113000D01*
X12021428Y-16084428D01*
X12011905Y-16074905D01*
D16*
X5226820Y-16508820D02*
X5226820Y-16445180D01*
X5163180Y-16445180D01*
X5163180Y-16508820D01*
X5226820Y-16508820D01*
D12*
X5535714Y-16367476D02*
X5554762Y-16367476D01*
X5573810Y-16377000D01*
X5583333Y-16386524D01*
X5592857Y-16405571D01*
X5602381Y-16443667D01*
X5602381Y-16491286D01*
X5592857Y-16529381D01*
X5583333Y-16548428D01*
X5573810Y-16557952D01*
X5554762Y-16567476D01*
X5535714Y-16567476D01*
X5516667Y-16557952D01*
X5507143Y-16548428D01*
X5497619Y-16529381D01*
X5488095Y-16491286D01*
X5488095Y-16443667D01*
X5497619Y-16405571D01*
X5507143Y-16386524D01*
X5516667Y-16377000D01*
X5535714Y-16367476D01*
X5688095Y-16548428D02*
X5697619Y-16557952D01*
X5688095Y-16567476D01*
X5678571Y-16557952D01*
X5688095Y-16548428D01*
X5688095Y-16567476D01*
X5792857Y-16567476D02*
X5830952Y-16567476D01*
X5850000Y-16557952D01*
X5859524Y-16548428D01*
X5878571Y-16519857D01*
X5888095Y-16481762D01*
X5888095Y-16405571D01*
X5878571Y-16386524D01*
X5869048Y-16377000D01*
X5850000Y-16367476D01*
X5811905Y-16367476D01*
X5792857Y-16377000D01*
X5783333Y-16386524D01*
X5773809Y-16405571D01*
X5773809Y-16453190D01*
X5783333Y-16472238D01*
X5792857Y-16481762D01*
X5811905Y-16491286D01*
X5850000Y-16491286D01*
X5869048Y-16481762D01*
X5878571Y-16472238D01*
X5888095Y-16453190D01*
X6011905Y-16367476D02*
X6030952Y-16367476D01*
X6050000Y-16377000D01*
X6059524Y-16386524D01*
X6069048Y-16405571D01*
X6078571Y-16443667D01*
X6078571Y-16491286D01*
X6069048Y-16529381D01*
X6059524Y-16548428D01*
X6050000Y-16557952D01*
X6030952Y-16567476D01*
X6011905Y-16567476D01*
X5992857Y-16557952D01*
X5983333Y-16548428D01*
X5973809Y-16529381D01*
X5964286Y-16491286D01*
X5964286Y-16443667D01*
X5973809Y-16405571D01*
X5983333Y-16386524D01*
X5992857Y-16377000D01*
X6011905Y-16367476D01*
X6202381Y-16367476D02*
X6221428Y-16367476D01*
X6240476Y-16377000D01*
X6250000Y-16386524D01*
X6259524Y-16405571D01*
X6269048Y-16443667D01*
X6269048Y-16491286D01*
X6259524Y-16529381D01*
X6250000Y-16548428D01*
X6240476Y-16557952D01*
X6221428Y-16567476D01*
X6202381Y-16567476D01*
X6183333Y-16557952D01*
X6173809Y-16548428D01*
X6164286Y-16529381D01*
X6154762Y-16491286D01*
X6154762Y-16443667D01*
X6164286Y-16405571D01*
X6173809Y-16386524D01*
X6183333Y-16377000D01*
X6202381Y-16367476D01*
X6354762Y-16567476D02*
X6354762Y-16434143D01*
X6354762Y-16453190D02*
X6364286Y-16443667D01*
X6383333Y-16434143D01*
X6411905Y-16434143D01*
X6430952Y-16443667D01*
X6440476Y-16462714D01*
X6440476Y-16567476D01*
X6440476Y-16462714D02*
X6450000Y-16443667D01*
X6469048Y-16434143D01*
X6497619Y-16434143D01*
X6516667Y-16443667D01*
X6526190Y-16462714D01*
X6526190Y-16567476D01*
X6621428Y-16567476D02*
X6621428Y-16434143D01*
X6621428Y-16453190D02*
X6630952Y-16443667D01*
X6650000Y-16434143D01*
X6678571Y-16434143D01*
X6697619Y-16443667D01*
X6707143Y-16462714D01*
X6707143Y-16567476D01*
X6707143Y-16462714D02*
X6716667Y-16443667D01*
X6735714Y-16434143D01*
X6764286Y-16434143D01*
X6783333Y-16443667D01*
X6792857Y-16462714D01*
X6792857Y-16567476D01*
X7183333Y-16357952D02*
X7011905Y-16615095D01*
X7440476Y-16367476D02*
X7459524Y-16367476D01*
X7478571Y-16377000D01*
X7488095Y-16386524D01*
X7497619Y-16405571D01*
X7507143Y-16443667D01*
X7507143Y-16491286D01*
X7497619Y-16529381D01*
X7488095Y-16548428D01*
X7478571Y-16557952D01*
X7459524Y-16567476D01*
X7440476Y-16567476D01*
X7421428Y-16557952D01*
X7411905Y-16548428D01*
X7402381Y-16529381D01*
X7392857Y-16491286D01*
X7392857Y-16443667D01*
X7402381Y-16405571D01*
X7411905Y-16386524D01*
X7421428Y-16377000D01*
X7440476Y-16367476D01*
X7592857Y-16548428D02*
X7602381Y-16557952D01*
X7592857Y-16567476D01*
X7583333Y-16557952D01*
X7592857Y-16548428D01*
X7592857Y-16567476D01*
X7726190Y-16367476D02*
X7745238Y-16367476D01*
X7764286Y-16377000D01*
X7773809Y-16386524D01*
X7783333Y-16405571D01*
X7792857Y-16443667D01*
X7792857Y-16491286D01*
X7783333Y-16529381D01*
X7773809Y-16548428D01*
X7764286Y-16557952D01*
X7745238Y-16567476D01*
X7726190Y-16567476D01*
X7707143Y-16557952D01*
X7697619Y-16548428D01*
X7688095Y-16529381D01*
X7678571Y-16491286D01*
X7678571Y-16443667D01*
X7688095Y-16405571D01*
X7697619Y-16386524D01*
X7707143Y-16377000D01*
X7726190Y-16367476D01*
X7859524Y-16367476D02*
X7983333Y-16367476D01*
X7916667Y-16443667D01*
X7945238Y-16443667D01*
X7964286Y-16453190D01*
X7973809Y-16462714D01*
X7983333Y-16481762D01*
X7983333Y-16529381D01*
X7973809Y-16548428D01*
X7964286Y-16557952D01*
X7945238Y-16567476D01*
X7888095Y-16567476D01*
X7869048Y-16557952D01*
X7859524Y-16548428D01*
X8164286Y-16367476D02*
X8069048Y-16367476D01*
X8059524Y-16462714D01*
X8069048Y-16453190D01*
X8088095Y-16443667D01*
X8135714Y-16443667D01*
X8154762Y-16453190D01*
X8164286Y-16462714D01*
X8173809Y-16481762D01*
X8173809Y-16529381D01*
X8164286Y-16548428D01*
X8154762Y-16557952D01*
X8135714Y-16567476D01*
X8088095Y-16567476D01*
X8069048Y-16557952D01*
X8059524Y-16548428D01*
X8345238Y-16434143D02*
X8345238Y-16567476D01*
X8297619Y-16357952D02*
X8250000Y-16500809D01*
X8373809Y-16500809D01*
X8440476Y-16367476D02*
X8440476Y-16405571D01*
X8516667Y-16367476D02*
X8516667Y-16405571D01*
X8811905Y-16643667D02*
X8802381Y-16634143D01*
X8783333Y-16605571D01*
X8773810Y-16586524D01*
X8764286Y-16557952D01*
X8754762Y-16510333D01*
X8754762Y-16472238D01*
X8764286Y-16424619D01*
X8773810Y-16396048D01*
X8783333Y-16377000D01*
X8802381Y-16348428D01*
X8811905Y-16338905D01*
X8878571Y-16386524D02*
X8888095Y-16377000D01*
X8907143Y-16367476D01*
X8954762Y-16367476D01*
X8973810Y-16377000D01*
X8983333Y-16386524D01*
X8992857Y-16405571D01*
X8992857Y-16424619D01*
X8983333Y-16453190D01*
X8869048Y-16567476D01*
X8992857Y-16567476D01*
X9116667Y-16367476D02*
X9135714Y-16367476D01*
X9154762Y-16377000D01*
X9164286Y-16386524D01*
X9173810Y-16405571D01*
X9183333Y-16443667D01*
X9183333Y-16491286D01*
X9173810Y-16529381D01*
X9164286Y-16548428D01*
X9154762Y-16557952D01*
X9135714Y-16567476D01*
X9116667Y-16567476D01*
X9097619Y-16557952D01*
X9088095Y-16548428D01*
X9078571Y-16529381D01*
X9069048Y-16491286D01*
X9069048Y-16443667D01*
X9078571Y-16405571D01*
X9088095Y-16386524D01*
X9097619Y-16377000D01*
X9116667Y-16367476D01*
X9421429Y-16567476D02*
X9421429Y-16367476D01*
X9507143Y-16567476D02*
X9507143Y-16462714D01*
X9497619Y-16443667D01*
X9478571Y-16434143D01*
X9450000Y-16434143D01*
X9430952Y-16443667D01*
X9421429Y-16453190D01*
X9630952Y-16567476D02*
X9611905Y-16557952D01*
X9602381Y-16548428D01*
X9592857Y-16529381D01*
X9592857Y-16472238D01*
X9602381Y-16453190D01*
X9611905Y-16443667D01*
X9630952Y-16434143D01*
X9659524Y-16434143D01*
X9678571Y-16443667D01*
X9688095Y-16453190D01*
X9697619Y-16472238D01*
X9697619Y-16529381D01*
X9688095Y-16548428D01*
X9678571Y-16557952D01*
X9659524Y-16567476D01*
X9630952Y-16567476D01*
X9811905Y-16567476D02*
X9792857Y-16557952D01*
X9783333Y-16538905D01*
X9783333Y-16367476D01*
X9964286Y-16557952D02*
X9945238Y-16567476D01*
X9907143Y-16567476D01*
X9888095Y-16557952D01*
X9878571Y-16538905D01*
X9878571Y-16462714D01*
X9888095Y-16443667D01*
X9907143Y-16434143D01*
X9945238Y-16434143D01*
X9964286Y-16443667D01*
X9973810Y-16462714D01*
X9973810Y-16481762D01*
X9878571Y-16500809D01*
X10050000Y-16557952D02*
X10069048Y-16567476D01*
X10107143Y-16567476D01*
X10126190Y-16557952D01*
X10135714Y-16538905D01*
X10135714Y-16529381D01*
X10126190Y-16510333D01*
X10107143Y-16500809D01*
X10078571Y-16500809D01*
X10059524Y-16491286D01*
X10050000Y-16472238D01*
X10050000Y-16462714D01*
X10059524Y-16443667D01*
X10078571Y-16434143D01*
X10107143Y-16434143D01*
X10126190Y-16443667D01*
X10202381Y-16643667D02*
X10211905Y-16634143D01*
X10230952Y-16605571D01*
X10240476Y-16586524D01*
X10250000Y-16557952D01*
X10259524Y-16510333D01*
X10259524Y-16472238D01*
X10250000Y-16424619D01*
X10240476Y-16396048D01*
X10230952Y-16377000D01*
X10211905Y-16348428D01*
X10202381Y-16338905D01*
D17*
X5190000Y-16791000D02*
X5240000Y-16741000D01*
X5190000Y-16691000D01*
X5140000Y-16741000D01*
X5190000Y-16791000D01*
D12*
X5602381Y-16831476D02*
X5488095Y-16831476D01*
X5545238Y-16831476D02*
X5545238Y-16631476D01*
X5526190Y-16660048D01*
X5507143Y-16679095D01*
X5488095Y-16688619D01*
X5688095Y-16812429D02*
X5697619Y-16821952D01*
X5688095Y-16831476D01*
X5678571Y-16821952D01*
X5688095Y-16812429D01*
X5688095Y-16831476D01*
X5821428Y-16631476D02*
X5840476Y-16631476D01*
X5859524Y-16641000D01*
X5869048Y-16650524D01*
X5878571Y-16669571D01*
X5888095Y-16707667D01*
X5888095Y-16755286D01*
X5878571Y-16793381D01*
X5869048Y-16812429D01*
X5859524Y-16821952D01*
X5840476Y-16831476D01*
X5821428Y-16831476D01*
X5802381Y-16821952D01*
X5792857Y-16812429D01*
X5783333Y-16793381D01*
X5773809Y-16755286D01*
X5773809Y-16707667D01*
X5783333Y-16669571D01*
X5792857Y-16650524D01*
X5802381Y-16641000D01*
X5821428Y-16631476D01*
X6011905Y-16631476D02*
X6030952Y-16631476D01*
X6050000Y-16641000D01*
X6059524Y-16650524D01*
X6069048Y-16669571D01*
X6078571Y-16707667D01*
X6078571Y-16755286D01*
X6069048Y-16793381D01*
X6059524Y-16812429D01*
X6050000Y-16821952D01*
X6030952Y-16831476D01*
X6011905Y-16831476D01*
X5992857Y-16821952D01*
X5983333Y-16812429D01*
X5973809Y-16793381D01*
X5964286Y-16755286D01*
X5964286Y-16707667D01*
X5973809Y-16669571D01*
X5983333Y-16650524D01*
X5992857Y-16641000D01*
X6011905Y-16631476D01*
X6202381Y-16631476D02*
X6221428Y-16631476D01*
X6240476Y-16641000D01*
X6250000Y-16650524D01*
X6259524Y-16669571D01*
X6269048Y-16707667D01*
X6269048Y-16755286D01*
X6259524Y-16793381D01*
X6250000Y-16812429D01*
X6240476Y-16821952D01*
X6221428Y-16831476D01*
X6202381Y-16831476D01*
X6183333Y-16821952D01*
X6173809Y-16812429D01*
X6164286Y-16793381D01*
X6154762Y-16755286D01*
X6154762Y-16707667D01*
X6164286Y-16669571D01*
X6173809Y-16650524D01*
X6183333Y-16641000D01*
X6202381Y-16631476D01*
X6354762Y-16831476D02*
X6354762Y-16698143D01*
X6354762Y-16717190D02*
X6364286Y-16707667D01*
X6383333Y-16698143D01*
X6411905Y-16698143D01*
X6430952Y-16707667D01*
X6440476Y-16726714D01*
X6440476Y-16831476D01*
X6440476Y-16726714D02*
X6450000Y-16707667D01*
X6469048Y-16698143D01*
X6497619Y-16698143D01*
X6516667Y-16707667D01*
X6526190Y-16726714D01*
X6526190Y-16831476D01*
X6621428Y-16831476D02*
X6621428Y-16698143D01*
X6621428Y-16717190D02*
X6630952Y-16707667D01*
X6650000Y-16698143D01*
X6678571Y-16698143D01*
X6697619Y-16707667D01*
X6707143Y-16726714D01*
X6707143Y-16831476D01*
X6707143Y-16726714D02*
X6716667Y-16707667D01*
X6735714Y-16698143D01*
X6764286Y-16698143D01*
X6783333Y-16707667D01*
X6792857Y-16726714D01*
X6792857Y-16831476D01*
X7183333Y-16621952D02*
X7011905Y-16879095D01*
X7440476Y-16631476D02*
X7459524Y-16631476D01*
X7478571Y-16641000D01*
X7488095Y-16650524D01*
X7497619Y-16669571D01*
X7507143Y-16707667D01*
X7507143Y-16755286D01*
X7497619Y-16793381D01*
X7488095Y-16812429D01*
X7478571Y-16821952D01*
X7459524Y-16831476D01*
X7440476Y-16831476D01*
X7421428Y-16821952D01*
X7411905Y-16812429D01*
X7402381Y-16793381D01*
X7392857Y-16755286D01*
X7392857Y-16707667D01*
X7402381Y-16669571D01*
X7411905Y-16650524D01*
X7421428Y-16641000D01*
X7440476Y-16631476D01*
X7592857Y-16812429D02*
X7602381Y-16821952D01*
X7592857Y-16831476D01*
X7583333Y-16821952D01*
X7592857Y-16812429D01*
X7592857Y-16831476D01*
X7726190Y-16631476D02*
X7745238Y-16631476D01*
X7764286Y-16641000D01*
X7773809Y-16650524D01*
X7783333Y-16669571D01*
X7792857Y-16707667D01*
X7792857Y-16755286D01*
X7783333Y-16793381D01*
X7773809Y-16812429D01*
X7764286Y-16821952D01*
X7745238Y-16831476D01*
X7726190Y-16831476D01*
X7707143Y-16821952D01*
X7697619Y-16812429D01*
X7688095Y-16793381D01*
X7678571Y-16755286D01*
X7678571Y-16707667D01*
X7688095Y-16669571D01*
X7697619Y-16650524D01*
X7707143Y-16641000D01*
X7726190Y-16631476D01*
X7859524Y-16631476D02*
X7983333Y-16631476D01*
X7916667Y-16707667D01*
X7945238Y-16707667D01*
X7964286Y-16717190D01*
X7973809Y-16726714D01*
X7983333Y-16745762D01*
X7983333Y-16793381D01*
X7973809Y-16812429D01*
X7964286Y-16821952D01*
X7945238Y-16831476D01*
X7888095Y-16831476D01*
X7869048Y-16821952D01*
X7859524Y-16812429D01*
X8078571Y-16831476D02*
X8116667Y-16831476D01*
X8135714Y-16821952D01*
X8145238Y-16812429D01*
X8164286Y-16783857D01*
X8173809Y-16745762D01*
X8173809Y-16669571D01*
X8164286Y-16650524D01*
X8154762Y-16641000D01*
X8135714Y-16631476D01*
X8097619Y-16631476D01*
X8078571Y-16641000D01*
X8069048Y-16650524D01*
X8059524Y-16669571D01*
X8059524Y-16717190D01*
X8069048Y-16736238D01*
X8078571Y-16745762D01*
X8097619Y-16755286D01*
X8135714Y-16755286D01*
X8154762Y-16745762D01*
X8164286Y-16736238D01*
X8173809Y-16717190D01*
X8345238Y-16698143D02*
X8345238Y-16831476D01*
X8297619Y-16621952D02*
X8250000Y-16764809D01*
X8373809Y-16764809D01*
X8440476Y-16631476D02*
X8440476Y-16669571D01*
X8516667Y-16631476D02*
X8516667Y-16669571D01*
X8811905Y-16907667D02*
X8802381Y-16898143D01*
X8783333Y-16869571D01*
X8773810Y-16850524D01*
X8764286Y-16821952D01*
X8754762Y-16774333D01*
X8754762Y-16736238D01*
X8764286Y-16688619D01*
X8773810Y-16660048D01*
X8783333Y-16641000D01*
X8802381Y-16612428D01*
X8811905Y-16602905D01*
X8973810Y-16698143D02*
X8973810Y-16831476D01*
X8926190Y-16621952D02*
X8878571Y-16764809D01*
X9002381Y-16764809D01*
X9116667Y-16631476D02*
X9135714Y-16631476D01*
X9154762Y-16641000D01*
X9164286Y-16650524D01*
X9173810Y-16669571D01*
X9183333Y-16707667D01*
X9183333Y-16755286D01*
X9173810Y-16793381D01*
X9164286Y-16812429D01*
X9154762Y-16821952D01*
X9135714Y-16831476D01*
X9116667Y-16831476D01*
X9097619Y-16821952D01*
X9088095Y-16812429D01*
X9078571Y-16793381D01*
X9069048Y-16755286D01*
X9069048Y-16707667D01*
X9078571Y-16669571D01*
X9088095Y-16650524D01*
X9097619Y-16641000D01*
X9116667Y-16631476D01*
X9421429Y-16831476D02*
X9421429Y-16631476D01*
X9507143Y-16831476D02*
X9507143Y-16726714D01*
X9497619Y-16707667D01*
X9478571Y-16698143D01*
X9450000Y-16698143D01*
X9430952Y-16707667D01*
X9421429Y-16717190D01*
X9630952Y-16831476D02*
X9611905Y-16821952D01*
X9602381Y-16812429D01*
X9592857Y-16793381D01*
X9592857Y-16736238D01*
X9602381Y-16717190D01*
X9611905Y-16707667D01*
X9630952Y-16698143D01*
X9659524Y-16698143D01*
X9678571Y-16707667D01*
X9688095Y-16717190D01*
X9697619Y-16736238D01*
X9697619Y-16793381D01*
X9688095Y-16812429D01*
X9678571Y-16821952D01*
X9659524Y-16831476D01*
X9630952Y-16831476D01*
X9811905Y-16831476D02*
X9792857Y-16821952D01*
X9783333Y-16802905D01*
X9783333Y-16631476D01*
X9964286Y-16821952D02*
X9945238Y-16831476D01*
X9907143Y-16831476D01*
X9888095Y-16821952D01*
X9878571Y-16802905D01*
X9878571Y-16726714D01*
X9888095Y-16707667D01*
X9907143Y-16698143D01*
X9945238Y-16698143D01*
X9964286Y-16707667D01*
X9973810Y-16726714D01*
X9973810Y-16745762D01*
X9878571Y-16764809D01*
X10050000Y-16821952D02*
X10069048Y-16831476D01*
X10107143Y-16831476D01*
X10126190Y-16821952D01*
X10135714Y-16802905D01*
X10135714Y-16793381D01*
X10126190Y-16774333D01*
X10107143Y-16764809D01*
X10078571Y-16764809D01*
X10059524Y-16755286D01*
X10050000Y-16736238D01*
X10050000Y-16726714D01*
X10059524Y-16707667D01*
X10078571Y-16698143D01*
X10107143Y-16698143D01*
X10126190Y-16707667D01*
X10202381Y-16907667D02*
X10211905Y-16898143D01*
X10230952Y-16869571D01*
X10240476Y-16850524D01*
X10250000Y-16821952D01*
X10259524Y-16774333D01*
X10259524Y-16736238D01*
X10250000Y-16688619D01*
X10240476Y-16660048D01*
X10230952Y-16641000D01*
X10211905Y-16612428D01*
X10202381Y-16602905D01*
D18*
X5138000Y-16954000D02*
X5240000Y-17056000D01*
X5240000Y-16954000D02*
X5138000Y-17056000D01*
X5240000Y-17005000D02*
G75*
G03*
X5240000Y-17005000I-51000J0D01*
G01*
D12*
X5602381Y-17095476D02*
X5488095Y-17095476D01*
X5545238Y-17095476D02*
X5545238Y-16895476D01*
X5526190Y-16924048D01*
X5507143Y-16943095D01*
X5488095Y-16952619D01*
X5688095Y-17076429D02*
X5697619Y-17085952D01*
X5688095Y-17095476D01*
X5678571Y-17085952D01*
X5688095Y-17076429D01*
X5688095Y-17095476D01*
X5821428Y-16895476D02*
X5840476Y-16895476D01*
X5859524Y-16905000D01*
X5869048Y-16914524D01*
X5878571Y-16933571D01*
X5888095Y-16971667D01*
X5888095Y-17019286D01*
X5878571Y-17057381D01*
X5869048Y-17076429D01*
X5859524Y-17085952D01*
X5840476Y-17095476D01*
X5821428Y-17095476D01*
X5802381Y-17085952D01*
X5792857Y-17076429D01*
X5783333Y-17057381D01*
X5773809Y-17019286D01*
X5773809Y-16971667D01*
X5783333Y-16933571D01*
X5792857Y-16914524D01*
X5802381Y-16905000D01*
X5821428Y-16895476D01*
X5964286Y-16914524D02*
X5973809Y-16905000D01*
X5992857Y-16895476D01*
X6040476Y-16895476D01*
X6059524Y-16905000D01*
X6069048Y-16914524D01*
X6078571Y-16933571D01*
X6078571Y-16952619D01*
X6069048Y-16981190D01*
X5954762Y-17095476D01*
X6078571Y-17095476D01*
X6202381Y-16895476D02*
X6221428Y-16895476D01*
X6240476Y-16905000D01*
X6250000Y-16914524D01*
X6259524Y-16933571D01*
X6269048Y-16971667D01*
X6269048Y-17019286D01*
X6259524Y-17057381D01*
X6250000Y-17076429D01*
X6240476Y-17085952D01*
X6221428Y-17095476D01*
X6202381Y-17095476D01*
X6183333Y-17085952D01*
X6173809Y-17076429D01*
X6164286Y-17057381D01*
X6154762Y-17019286D01*
X6154762Y-16971667D01*
X6164286Y-16933571D01*
X6173809Y-16914524D01*
X6183333Y-16905000D01*
X6202381Y-16895476D01*
X6354762Y-17095476D02*
X6354762Y-16962143D01*
X6354762Y-16981190D02*
X6364286Y-16971667D01*
X6383333Y-16962143D01*
X6411905Y-16962143D01*
X6430952Y-16971667D01*
X6440476Y-16990714D01*
X6440476Y-17095476D01*
X6440476Y-16990714D02*
X6450000Y-16971667D01*
X6469048Y-16962143D01*
X6497619Y-16962143D01*
X6516667Y-16971667D01*
X6526190Y-16990714D01*
X6526190Y-17095476D01*
X6621428Y-17095476D02*
X6621428Y-16962143D01*
X6621428Y-16981190D02*
X6630952Y-16971667D01*
X6650000Y-16962143D01*
X6678571Y-16962143D01*
X6697619Y-16971667D01*
X6707143Y-16990714D01*
X6707143Y-17095476D01*
X6707143Y-16990714D02*
X6716667Y-16971667D01*
X6735714Y-16962143D01*
X6764286Y-16962143D01*
X6783333Y-16971667D01*
X6792857Y-16990714D01*
X6792857Y-17095476D01*
X7183333Y-16885952D02*
X7011905Y-17143095D01*
X7440476Y-16895476D02*
X7459524Y-16895476D01*
X7478571Y-16905000D01*
X7488095Y-16914524D01*
X7497619Y-16933571D01*
X7507143Y-16971667D01*
X7507143Y-17019286D01*
X7497619Y-17057381D01*
X7488095Y-17076429D01*
X7478571Y-17085952D01*
X7459524Y-17095476D01*
X7440476Y-17095476D01*
X7421428Y-17085952D01*
X7411905Y-17076429D01*
X7402381Y-17057381D01*
X7392857Y-17019286D01*
X7392857Y-16971667D01*
X7402381Y-16933571D01*
X7411905Y-16914524D01*
X7421428Y-16905000D01*
X7440476Y-16895476D01*
X7592857Y-17076429D02*
X7602381Y-17085952D01*
X7592857Y-17095476D01*
X7583333Y-17085952D01*
X7592857Y-17076429D01*
X7592857Y-17095476D01*
X7726190Y-16895476D02*
X7745238Y-16895476D01*
X7764286Y-16905000D01*
X7773809Y-16914524D01*
X7783333Y-16933571D01*
X7792857Y-16971667D01*
X7792857Y-17019286D01*
X7783333Y-17057381D01*
X7773809Y-17076429D01*
X7764286Y-17085952D01*
X7745238Y-17095476D01*
X7726190Y-17095476D01*
X7707143Y-17085952D01*
X7697619Y-17076429D01*
X7688095Y-17057381D01*
X7678571Y-17019286D01*
X7678571Y-16971667D01*
X7688095Y-16933571D01*
X7697619Y-16914524D01*
X7707143Y-16905000D01*
X7726190Y-16895476D01*
X7964286Y-16962143D02*
X7964286Y-17095476D01*
X7916667Y-16885952D02*
X7869048Y-17028810D01*
X7992857Y-17028810D01*
X8107143Y-16895476D02*
X8126190Y-16895476D01*
X8145238Y-16905000D01*
X8154762Y-16914524D01*
X8164286Y-16933571D01*
X8173809Y-16971667D01*
X8173809Y-17019286D01*
X8164286Y-17057381D01*
X8154762Y-17076429D01*
X8145238Y-17085952D01*
X8126190Y-17095476D01*
X8107143Y-17095476D01*
X8088095Y-17085952D01*
X8078571Y-17076429D01*
X8069048Y-17057381D01*
X8059524Y-17019286D01*
X8059524Y-16971667D01*
X8069048Y-16933571D01*
X8078571Y-16914524D01*
X8088095Y-16905000D01*
X8107143Y-16895476D01*
X8250000Y-16914524D02*
X8259524Y-16905000D01*
X8278571Y-16895476D01*
X8326190Y-16895476D01*
X8345238Y-16905000D01*
X8354762Y-16914524D01*
X8364286Y-16933571D01*
X8364286Y-16952619D01*
X8354762Y-16981190D01*
X8240476Y-17095476D01*
X8364286Y-17095476D01*
X8440476Y-16895476D02*
X8440476Y-16933571D01*
X8516667Y-16895476D02*
X8516667Y-16933571D01*
X8811905Y-17171667D02*
X8802381Y-17162143D01*
X8783333Y-17133571D01*
X8773810Y-17114524D01*
X8764286Y-17085952D01*
X8754762Y-17038333D01*
X8754762Y-17000238D01*
X8764286Y-16952619D01*
X8773810Y-16924048D01*
X8783333Y-16905000D01*
X8802381Y-16876429D01*
X8811905Y-16866905D01*
X8869048Y-16895476D02*
X8992857Y-16895476D01*
X8926190Y-16971667D01*
X8954762Y-16971667D01*
X8973810Y-16981190D01*
X8983333Y-16990714D01*
X8992857Y-17009762D01*
X8992857Y-17057381D01*
X8983333Y-17076429D01*
X8973810Y-17085952D01*
X8954762Y-17095476D01*
X8897619Y-17095476D01*
X8878571Y-17085952D01*
X8869048Y-17076429D01*
X9116667Y-16895476D02*
X9135714Y-16895476D01*
X9154762Y-16905000D01*
X9164286Y-16914524D01*
X9173810Y-16933571D01*
X9183333Y-16971667D01*
X9183333Y-17019286D01*
X9173810Y-17057381D01*
X9164286Y-17076429D01*
X9154762Y-17085952D01*
X9135714Y-17095476D01*
X9116667Y-17095476D01*
X9097619Y-17085952D01*
X9088095Y-17076429D01*
X9078571Y-17057381D01*
X9069048Y-17019286D01*
X9069048Y-16971667D01*
X9078571Y-16933571D01*
X9088095Y-16914524D01*
X9097619Y-16905000D01*
X9116667Y-16895476D01*
X9421429Y-17095476D02*
X9421429Y-16895476D01*
X9507143Y-17095476D02*
X9507143Y-16990714D01*
X9497619Y-16971667D01*
X9478571Y-16962143D01*
X9450000Y-16962143D01*
X9430952Y-16971667D01*
X9421429Y-16981190D01*
X9630952Y-17095476D02*
X9611905Y-17085952D01*
X9602381Y-17076429D01*
X9592857Y-17057381D01*
X9592857Y-17000238D01*
X9602381Y-16981190D01*
X9611905Y-16971667D01*
X9630952Y-16962143D01*
X9659524Y-16962143D01*
X9678571Y-16971667D01*
X9688095Y-16981190D01*
X9697619Y-17000238D01*
X9697619Y-17057381D01*
X9688095Y-17076429D01*
X9678571Y-17085952D01*
X9659524Y-17095476D01*
X9630952Y-17095476D01*
X9811905Y-17095476D02*
X9792857Y-17085952D01*
X9783333Y-17066905D01*
X9783333Y-16895476D01*
X9964286Y-17085952D02*
X9945238Y-17095476D01*
X9907143Y-17095476D01*
X9888095Y-17085952D01*
X9878571Y-17066905D01*
X9878571Y-16990714D01*
X9888095Y-16971667D01*
X9907143Y-16962143D01*
X9945238Y-16962143D01*
X9964286Y-16971667D01*
X9973810Y-16990714D01*
X9973810Y-17009762D01*
X9878571Y-17028810D01*
X10050000Y-17085952D02*
X10069048Y-17095476D01*
X10107143Y-17095476D01*
X10126190Y-17085952D01*
X10135714Y-17066905D01*
X10135714Y-17057381D01*
X10126190Y-17038333D01*
X10107143Y-17028810D01*
X10078571Y-17028810D01*
X10059524Y-17019286D01*
X10050000Y-17000238D01*
X10050000Y-16990714D01*
X10059524Y-16971667D01*
X10078571Y-16962143D01*
X10107143Y-16962143D01*
X10126190Y-16971667D01*
X10202381Y-17171667D02*
X10211905Y-17162143D01*
X10230952Y-17133571D01*
X10240476Y-17114524D01*
X10250000Y-17085952D01*
X10259524Y-17038333D01*
X10259524Y-17000238D01*
X10250000Y-16952619D01*
X10240476Y-16924048D01*
X10230952Y-16905000D01*
X10211905Y-16876429D01*
X10202381Y-16866905D01*
D19*
X5130000Y-17214000D02*
X5240000Y-17324000D01*
X5240000Y-17214000D02*
X5130000Y-17324000D01*
X5185000Y-17214000D02*
X5185000Y-17324000D01*
X5130000Y-17269000D02*
X5240000Y-17269000D01*
D12*
X5602381Y-17359476D02*
X5488095Y-17359476D01*
X5545238Y-17359476D02*
X5545238Y-17159476D01*
X5526190Y-17188048D01*
X5507143Y-17207095D01*
X5488095Y-17216619D01*
X5688095Y-17340429D02*
X5697619Y-17349952D01*
X5688095Y-17359476D01*
X5678571Y-17349952D01*
X5688095Y-17340429D01*
X5688095Y-17359476D01*
X5888095Y-17359476D02*
X5773809Y-17359476D01*
X5830952Y-17359476D02*
X5830952Y-17159476D01*
X5811905Y-17188048D01*
X5792857Y-17207095D01*
X5773809Y-17216619D01*
X6011905Y-17159476D02*
X6030952Y-17159476D01*
X6050000Y-17169000D01*
X6059524Y-17178524D01*
X6069048Y-17197571D01*
X6078571Y-17235667D01*
X6078571Y-17283286D01*
X6069048Y-17321381D01*
X6059524Y-17340429D01*
X6050000Y-17349952D01*
X6030952Y-17359476D01*
X6011905Y-17359476D01*
X5992857Y-17349952D01*
X5983333Y-17340429D01*
X5973809Y-17321381D01*
X5964286Y-17283286D01*
X5964286Y-17235667D01*
X5973809Y-17197571D01*
X5983333Y-17178524D01*
X5992857Y-17169000D01*
X6011905Y-17159476D01*
X6202381Y-17159476D02*
X6221428Y-17159476D01*
X6240476Y-17169000D01*
X6250000Y-17178524D01*
X6259524Y-17197571D01*
X6269048Y-17235667D01*
X6269048Y-17283286D01*
X6259524Y-17321381D01*
X6250000Y-17340429D01*
X6240476Y-17349952D01*
X6221428Y-17359476D01*
X6202381Y-17359476D01*
X6183333Y-17349952D01*
X6173809Y-17340429D01*
X6164286Y-17321381D01*
X6154762Y-17283286D01*
X6154762Y-17235667D01*
X6164286Y-17197571D01*
X6173809Y-17178524D01*
X6183333Y-17169000D01*
X6202381Y-17159476D01*
X6354762Y-17359476D02*
X6354762Y-17226143D01*
X6354762Y-17245190D02*
X6364286Y-17235667D01*
X6383333Y-17226143D01*
X6411905Y-17226143D01*
X6430952Y-17235667D01*
X6440476Y-17254714D01*
X6440476Y-17359476D01*
X6440476Y-17254714D02*
X6450000Y-17235667D01*
X6469048Y-17226143D01*
X6497619Y-17226143D01*
X6516667Y-17235667D01*
X6526190Y-17254714D01*
X6526190Y-17359476D01*
X6621428Y-17359476D02*
X6621428Y-17226143D01*
X6621428Y-17245190D02*
X6630952Y-17235667D01*
X6650000Y-17226143D01*
X6678571Y-17226143D01*
X6697619Y-17235667D01*
X6707143Y-17254714D01*
X6707143Y-17359476D01*
X6707143Y-17254714D02*
X6716667Y-17235667D01*
X6735714Y-17226143D01*
X6764286Y-17226143D01*
X6783333Y-17235667D01*
X6792857Y-17254714D01*
X6792857Y-17359476D01*
X7183333Y-17149952D02*
X7011905Y-17407095D01*
X7440476Y-17159476D02*
X7459524Y-17159476D01*
X7478571Y-17169000D01*
X7488095Y-17178524D01*
X7497619Y-17197571D01*
X7507143Y-17235667D01*
X7507143Y-17283286D01*
X7497619Y-17321381D01*
X7488095Y-17340429D01*
X7478571Y-17349952D01*
X7459524Y-17359476D01*
X7440476Y-17359476D01*
X7421428Y-17349952D01*
X7411905Y-17340429D01*
X7402381Y-17321381D01*
X7392857Y-17283286D01*
X7392857Y-17235667D01*
X7402381Y-17197571D01*
X7411905Y-17178524D01*
X7421428Y-17169000D01*
X7440476Y-17159476D01*
X7592857Y-17340429D02*
X7602381Y-17349952D01*
X7592857Y-17359476D01*
X7583333Y-17349952D01*
X7592857Y-17340429D01*
X7592857Y-17359476D01*
X7726190Y-17159476D02*
X7745238Y-17159476D01*
X7764286Y-17169000D01*
X7773809Y-17178524D01*
X7783333Y-17197571D01*
X7792857Y-17235667D01*
X7792857Y-17283286D01*
X7783333Y-17321381D01*
X7773809Y-17340429D01*
X7764286Y-17349952D01*
X7745238Y-17359476D01*
X7726190Y-17359476D01*
X7707143Y-17349952D01*
X7697619Y-17340429D01*
X7688095Y-17321381D01*
X7678571Y-17283286D01*
X7678571Y-17235667D01*
X7688095Y-17197571D01*
X7697619Y-17178524D01*
X7707143Y-17169000D01*
X7726190Y-17159476D01*
X7964286Y-17226143D02*
X7964286Y-17359476D01*
X7916667Y-17149952D02*
X7869048Y-17292810D01*
X7992857Y-17292810D01*
X8050000Y-17159476D02*
X8173809Y-17159476D01*
X8107143Y-17235667D01*
X8135714Y-17235667D01*
X8154762Y-17245190D01*
X8164286Y-17254714D01*
X8173809Y-17273762D01*
X8173809Y-17321381D01*
X8164286Y-17340429D01*
X8154762Y-17349952D01*
X8135714Y-17359476D01*
X8078571Y-17359476D01*
X8059524Y-17349952D01*
X8050000Y-17340429D01*
X8240476Y-17159476D02*
X8364286Y-17159476D01*
X8297619Y-17235667D01*
X8326190Y-17235667D01*
X8345238Y-17245190D01*
X8354762Y-17254714D01*
X8364286Y-17273762D01*
X8364286Y-17321381D01*
X8354762Y-17340429D01*
X8345238Y-17349952D01*
X8326190Y-17359476D01*
X8269048Y-17359476D01*
X8250000Y-17349952D01*
X8240476Y-17340429D01*
X8440476Y-17159476D02*
X8440476Y-17197571D01*
X8516667Y-17159476D02*
X8516667Y-17197571D01*
X8811905Y-17435667D02*
X8802381Y-17426143D01*
X8783333Y-17397571D01*
X8773810Y-17378524D01*
X8764286Y-17349952D01*
X8754762Y-17302333D01*
X8754762Y-17264238D01*
X8764286Y-17216619D01*
X8773810Y-17188048D01*
X8783333Y-17169000D01*
X8802381Y-17140429D01*
X8811905Y-17130905D01*
X8869048Y-17159476D02*
X8992857Y-17159476D01*
X8926190Y-17235667D01*
X8954762Y-17235667D01*
X8973810Y-17245190D01*
X8983333Y-17254714D01*
X8992857Y-17273762D01*
X8992857Y-17321381D01*
X8983333Y-17340429D01*
X8973810Y-17349952D01*
X8954762Y-17359476D01*
X8897619Y-17359476D01*
X8878571Y-17349952D01*
X8869048Y-17340429D01*
X9059524Y-17159476D02*
X9183333Y-17159476D01*
X9116667Y-17235667D01*
X9145238Y-17235667D01*
X9164286Y-17245190D01*
X9173810Y-17254714D01*
X9183333Y-17273762D01*
X9183333Y-17321381D01*
X9173810Y-17340429D01*
X9164286Y-17349952D01*
X9145238Y-17359476D01*
X9088095Y-17359476D01*
X9069048Y-17349952D01*
X9059524Y-17340429D01*
X9421429Y-17359476D02*
X9421429Y-17159476D01*
X9507143Y-17359476D02*
X9507143Y-17254714D01*
X9497619Y-17235667D01*
X9478571Y-17226143D01*
X9450000Y-17226143D01*
X9430952Y-17235667D01*
X9421429Y-17245190D01*
X9630952Y-17359476D02*
X9611905Y-17349952D01*
X9602381Y-17340429D01*
X9592857Y-17321381D01*
X9592857Y-17264238D01*
X9602381Y-17245190D01*
X9611905Y-17235667D01*
X9630952Y-17226143D01*
X9659524Y-17226143D01*
X9678571Y-17235667D01*
X9688095Y-17245190D01*
X9697619Y-17264238D01*
X9697619Y-17321381D01*
X9688095Y-17340429D01*
X9678571Y-17349952D01*
X9659524Y-17359476D01*
X9630952Y-17359476D01*
X9811905Y-17359476D02*
X9792857Y-17349952D01*
X9783333Y-17330905D01*
X9783333Y-17159476D01*
X9964286Y-17349952D02*
X9945238Y-17359476D01*
X9907143Y-17359476D01*
X9888095Y-17349952D01*
X9878571Y-17330905D01*
X9878571Y-17254714D01*
X9888095Y-17235667D01*
X9907143Y-17226143D01*
X9945238Y-17226143D01*
X9964286Y-17235667D01*
X9973810Y-17254714D01*
X9973810Y-17273762D01*
X9878571Y-17292810D01*
X10050000Y-17349952D02*
X10069048Y-17359476D01*
X10107143Y-17359476D01*
X10126190Y-17349952D01*
X10135714Y-17330905D01*
X10135714Y-17321381D01*
X10126190Y-17302333D01*
X10107143Y-17292810D01*
X10078571Y-17292810D01*
X10059524Y-17283286D01*
X10050000Y-17264238D01*
X10050000Y-17254714D01*
X10059524Y-17235667D01*
X10078571Y-17226143D01*
X10107143Y-17226143D01*
X10126190Y-17235667D01*
X10202381Y-17435667D02*
X10211905Y-17426143D01*
X10230952Y-17397571D01*
X10240476Y-17378524D01*
X10250000Y-17349952D01*
X10259524Y-17302333D01*
X10259524Y-17264238D01*
X10250000Y-17216619D01*
X10240476Y-17188048D01*
X10230952Y-17169000D01*
X10211905Y-17140429D01*
X10202381Y-17130905D01*
X5040000Y-17433000D02*
X5240000Y-17633000D01*
X5240000Y-17433000D02*
X5040000Y-17633000D01*
X5210711Y-17603711D02*
X5210711Y-17462289D01*
X5069289Y-17462289D01*
X5069289Y-17603711D01*
X5210711Y-17603711D01*
X5488095Y-17442524D02*
X5497619Y-17433000D01*
X5516667Y-17423476D01*
X5564286Y-17423476D01*
X5583333Y-17433000D01*
X5592857Y-17442524D01*
X5602381Y-17461571D01*
X5602381Y-17480619D01*
X5592857Y-17509190D01*
X5478571Y-17623476D01*
X5602381Y-17623476D01*
X5688095Y-17604429D02*
X5697619Y-17613952D01*
X5688095Y-17623476D01*
X5678571Y-17613952D01*
X5688095Y-17604429D01*
X5688095Y-17623476D01*
X5888095Y-17623476D02*
X5773809Y-17623476D01*
X5830952Y-17623476D02*
X5830952Y-17423476D01*
X5811905Y-17452048D01*
X5792857Y-17471095D01*
X5773809Y-17480619D01*
X6011905Y-17423476D02*
X6030952Y-17423476D01*
X6050000Y-17433000D01*
X6059524Y-17442524D01*
X6069048Y-17461571D01*
X6078571Y-17499667D01*
X6078571Y-17547286D01*
X6069048Y-17585381D01*
X6059524Y-17604429D01*
X6050000Y-17613952D01*
X6030952Y-17623476D01*
X6011905Y-17623476D01*
X5992857Y-17613952D01*
X5983333Y-17604429D01*
X5973809Y-17585381D01*
X5964286Y-17547286D01*
X5964286Y-17499667D01*
X5973809Y-17461571D01*
X5983333Y-17442524D01*
X5992857Y-17433000D01*
X6011905Y-17423476D01*
X6202381Y-17423476D02*
X6221428Y-17423476D01*
X6240476Y-17433000D01*
X6250000Y-17442524D01*
X6259524Y-17461571D01*
X6269048Y-17499667D01*
X6269048Y-17547286D01*
X6259524Y-17585381D01*
X6250000Y-17604429D01*
X6240476Y-17613952D01*
X6221428Y-17623476D01*
X6202381Y-17623476D01*
X6183333Y-17613952D01*
X6173809Y-17604429D01*
X6164286Y-17585381D01*
X6154762Y-17547286D01*
X6154762Y-17499667D01*
X6164286Y-17461571D01*
X6173809Y-17442524D01*
X6183333Y-17433000D01*
X6202381Y-17423476D01*
X6354762Y-17623476D02*
X6354762Y-17490143D01*
X6354762Y-17509190D02*
X6364286Y-17499667D01*
X6383333Y-17490143D01*
X6411905Y-17490143D01*
X6430952Y-17499667D01*
X6440476Y-17518714D01*
X6440476Y-17623476D01*
X6440476Y-17518714D02*
X6450000Y-17499667D01*
X6469048Y-17490143D01*
X6497619Y-17490143D01*
X6516667Y-17499667D01*
X6526190Y-17518714D01*
X6526190Y-17623476D01*
X6621428Y-17623476D02*
X6621428Y-17490143D01*
X6621428Y-17509190D02*
X6630952Y-17499667D01*
X6650000Y-17490143D01*
X6678571Y-17490143D01*
X6697619Y-17499667D01*
X6707143Y-17518714D01*
X6707143Y-17623476D01*
X6707143Y-17518714D02*
X6716667Y-17499667D01*
X6735714Y-17490143D01*
X6764286Y-17490143D01*
X6783333Y-17499667D01*
X6792857Y-17518714D01*
X6792857Y-17623476D01*
X7183333Y-17413952D02*
X7011905Y-17671095D01*
X7440476Y-17423476D02*
X7459524Y-17423476D01*
X7478571Y-17433000D01*
X7488095Y-17442524D01*
X7497619Y-17461571D01*
X7507143Y-17499667D01*
X7507143Y-17547286D01*
X7497619Y-17585381D01*
X7488095Y-17604429D01*
X7478571Y-17613952D01*
X7459524Y-17623476D01*
X7440476Y-17623476D01*
X7421428Y-17613952D01*
X7411905Y-17604429D01*
X7402381Y-17585381D01*
X7392857Y-17547286D01*
X7392857Y-17499667D01*
X7402381Y-17461571D01*
X7411905Y-17442524D01*
X7421428Y-17433000D01*
X7440476Y-17423476D01*
X7592857Y-17604429D02*
X7602381Y-17613952D01*
X7592857Y-17623476D01*
X7583333Y-17613952D01*
X7592857Y-17604429D01*
X7592857Y-17623476D01*
X7726190Y-17423476D02*
X7745238Y-17423476D01*
X7764286Y-17433000D01*
X7773809Y-17442524D01*
X7783333Y-17461571D01*
X7792857Y-17499667D01*
X7792857Y-17547286D01*
X7783333Y-17585381D01*
X7773809Y-17604429D01*
X7764286Y-17613952D01*
X7745238Y-17623476D01*
X7726190Y-17623476D01*
X7707143Y-17613952D01*
X7697619Y-17604429D01*
X7688095Y-17585381D01*
X7678571Y-17547286D01*
X7678571Y-17499667D01*
X7688095Y-17461571D01*
X7697619Y-17442524D01*
X7707143Y-17433000D01*
X7726190Y-17423476D01*
X7907143Y-17509190D02*
X7888095Y-17499667D01*
X7878571Y-17490143D01*
X7869048Y-17471095D01*
X7869048Y-17461571D01*
X7878571Y-17442524D01*
X7888095Y-17433000D01*
X7907143Y-17423476D01*
X7945238Y-17423476D01*
X7964286Y-17433000D01*
X7973809Y-17442524D01*
X7983333Y-17461571D01*
X7983333Y-17471095D01*
X7973809Y-17490143D01*
X7964286Y-17499667D01*
X7945238Y-17509190D01*
X7907143Y-17509190D01*
X7888095Y-17518714D01*
X7878571Y-17528238D01*
X7869048Y-17547286D01*
X7869048Y-17585381D01*
X7878571Y-17604429D01*
X7888095Y-17613952D01*
X7907143Y-17623476D01*
X7945238Y-17623476D01*
X7964286Y-17613952D01*
X7973809Y-17604429D01*
X7983333Y-17585381D01*
X7983333Y-17547286D01*
X7973809Y-17528238D01*
X7964286Y-17518714D01*
X7945238Y-17509190D01*
X8059524Y-17442524D02*
X8069048Y-17433000D01*
X8088095Y-17423476D01*
X8135714Y-17423476D01*
X8154762Y-17433000D01*
X8164286Y-17442524D01*
X8173809Y-17461571D01*
X8173809Y-17480619D01*
X8164286Y-17509190D01*
X8050000Y-17623476D01*
X8173809Y-17623476D01*
X8240476Y-17423476D02*
X8373809Y-17423476D01*
X8288095Y-17623476D01*
X8440476Y-17423476D02*
X8440476Y-17461571D01*
X8516667Y-17423476D02*
X8516667Y-17461571D01*
X8811905Y-17699667D02*
X8802381Y-17690143D01*
X8783333Y-17661571D01*
X8773810Y-17642524D01*
X8764286Y-17613952D01*
X8754762Y-17566333D01*
X8754762Y-17528238D01*
X8764286Y-17480619D01*
X8773810Y-17452048D01*
X8783333Y-17433000D01*
X8802381Y-17404429D01*
X8811905Y-17394905D01*
X8878571Y-17442524D02*
X8888095Y-17433000D01*
X8907143Y-17423476D01*
X8954762Y-17423476D01*
X8973810Y-17433000D01*
X8983333Y-17442524D01*
X8992857Y-17461571D01*
X8992857Y-17480619D01*
X8983333Y-17509190D01*
X8869048Y-17623476D01*
X8992857Y-17623476D01*
X9230952Y-17623476D02*
X9230952Y-17423476D01*
X9316667Y-17623476D02*
X9316667Y-17518714D01*
X9307143Y-17499667D01*
X9288095Y-17490143D01*
X9259524Y-17490143D01*
X9240476Y-17499667D01*
X9230952Y-17509190D01*
X9440476Y-17623476D02*
X9421429Y-17613952D01*
X9411905Y-17604429D01*
X9402381Y-17585381D01*
X9402381Y-17528238D01*
X9411905Y-17509190D01*
X9421429Y-17499667D01*
X9440476Y-17490143D01*
X9469048Y-17490143D01*
X9488095Y-17499667D01*
X9497619Y-17509190D01*
X9507143Y-17528238D01*
X9507143Y-17585381D01*
X9497619Y-17604429D01*
X9488095Y-17613952D01*
X9469048Y-17623476D01*
X9440476Y-17623476D01*
X9621429Y-17623476D02*
X9602381Y-17613952D01*
X9592857Y-17594905D01*
X9592857Y-17423476D01*
X9773810Y-17613952D02*
X9754762Y-17623476D01*
X9716667Y-17623476D01*
X9697619Y-17613952D01*
X9688095Y-17594905D01*
X9688095Y-17518714D01*
X9697619Y-17499667D01*
X9716667Y-17490143D01*
X9754762Y-17490143D01*
X9773810Y-17499667D01*
X9783333Y-17518714D01*
X9783333Y-17537762D01*
X9688095Y-17556810D01*
X9859524Y-17613952D02*
X9878571Y-17623476D01*
X9916667Y-17623476D01*
X9935714Y-17613952D01*
X9945238Y-17594905D01*
X9945238Y-17585381D01*
X9935714Y-17566333D01*
X9916667Y-17556810D01*
X9888095Y-17556810D01*
X9869048Y-17547286D01*
X9859524Y-17528238D01*
X9859524Y-17518714D01*
X9869048Y-17499667D01*
X9888095Y-17490143D01*
X9916667Y-17490143D01*
X9935714Y-17499667D01*
X10011905Y-17699667D02*
X10021429Y-17690143D01*
X10040476Y-17661571D01*
X10050000Y-17642524D01*
X10059524Y-17613952D01*
X10069048Y-17566333D01*
X10069048Y-17528238D01*
X10059524Y-17480619D01*
X10050000Y-17452048D01*
X10040476Y-17433000D01*
X10021429Y-17404429D01*
X10011905Y-17394905D01*
M02*
