M48
; DRILL file {KiCad (6.0.4)} date Sat Mar 25 19:22:42 2023
; FORMAT={-:-/ absolute / metric / decimal}
; #@! TF.CreationDate,2023-03-25T19:22:42+01:00
; #@! TF.GenerationSoftware,Kicad,Pcbnew,(6.0.4)
; #@! TF.FileFunction,Plated,1,2,PTH
FMAT,2
METRIC
; #@! TA.AperFunction,Plated,PTH,ViaDrill
T1C0.400
; #@! TA.AperFunction,Plated,PTH,ComponentDrill
T2C0.700
; #@! TA.AperFunction,Plated,PTH,ComponentDrill
T3C0.800
; #@! TA.AperFunction,Plated,PTH,ComponentDrill
T4C0.900
; #@! TA.AperFunction,Plated,PTH,ComponentDrill
T5C1.000
; #@! TA.AperFunction,Plated,PTH,ComponentDrill
T6C1.020
; #@! TA.AperFunction,Plated,PTH,ComponentDrill
T7C1.100
; #@! TA.AperFunction,Plated,PTH,ComponentDrill
T8C2.100
%
G90
G05
T1
X57.5Y-67.5
X57.5Y-77.5
X57.5Y-87.5
X57.5Y-98.0
X57.5Y-110.5
X57.5Y-123.0
X57.5Y-135.5
X57.5Y-147.5
X67.5Y-67.5
X67.5Y-77.5
X67.5Y-147.5
X75.5Y-92.5
X75.5Y-111.5
X75.5Y-122.5
X77.5Y-67.5
X77.5Y-137.5
X77.5Y-147.5
X87.5Y-77.5
X87.5Y-87.5
X87.5Y-107.5
X87.5Y-117.5
X87.5Y-127.5
X87.5Y-147.5
X97.5Y-77.5
X97.5Y-87.5
X97.5Y-117.5
X97.5Y-127.5
X97.5Y-147.5
X107.5Y-77.5
X107.5Y-87.5
X107.5Y-97.5
X107.5Y-107.5
X107.5Y-117.5
X117.5Y-97.5
X117.5Y-107.5
X117.5Y-117.5
X117.5Y-147.5
X118.0Y-128.0
X127.5Y-147.5
X137.5Y-97.5
X137.5Y-107.5
X137.5Y-123.0
X137.5Y-135.5
X137.5Y-147.5
X140.0Y-72.5
X140.0Y-84.5
T2
X57.38Y-95.5
X57.69Y-108.04
X57.69Y-120.54
X57.69Y-133.04
X57.69Y-145.54
X65.0Y-95.5
X65.31Y-108.04
X65.31Y-120.54
X65.31Y-133.04
X65.31Y-145.54
X72.88Y-69.75
X72.88Y-73.5
X80.5Y-69.75
X80.5Y-73.5
X88.6Y-92.59
X88.6Y-100.21
X91.0Y-92.59
X91.0Y-100.21
X108.77Y-134.14
X108.77Y-141.76
X111.27Y-134.14
X111.27Y-141.76
X129.19Y-87.5
X129.19Y-100.0
X129.19Y-113.0
X129.19Y-125.0
X129.19Y-138.0
X136.81Y-87.5
X136.81Y-100.0
X136.81Y-113.0
X136.81Y-125.0
X136.81Y-138.0
T3
X61.7Y-67.61
X61.7Y-70.15
X73.0Y-76.0
X73.0Y-81.0
X77.182Y-81.0
X79.682Y-81.0
X83.5Y-144.71
X83.5Y-147.25
X104.072Y-146.5
X106.572Y-146.5
X115.0Y-136.0
X115.0Y-145.15
X115.0Y-147.69
X117.5Y-136.0
X117.8Y-66.71
X117.8Y-69.25
X138.8Y-66.71
X138.8Y-69.25
T4
X64.69Y-90.5
X64.69Y-103.04
X64.69Y-115.54
X64.69Y-128.04
X64.69Y-140.54
X72.31Y-90.5
X72.31Y-103.04
X72.31Y-115.54
X72.31Y-128.04
X72.31Y-140.54
X122.19Y-92.5
X122.19Y-105.0
X122.19Y-117.5
X122.19Y-130.0
X122.19Y-143.0
X129.81Y-92.5
X129.81Y-105.0
X129.81Y-117.5
X129.81Y-130.0
X129.81Y-143.0
T5
X61.5Y-87.735
X61.5Y-90.275
X61.5Y-100.275
X61.5Y-102.815
X61.5Y-112.775
X61.5Y-115.315
X61.5Y-125.275
X61.5Y-127.815
X61.5Y-137.775
X61.5Y-140.315
X67.025Y-71.6
X69.565Y-71.6
X70.725Y-84.5
X73.265Y-84.5
X78.5Y-100.5
X78.5Y-103.04
X115.005Y-141.987
X117.545Y-141.987
X117.725Y-72.5
X120.265Y-72.5
X133.0Y-92.5
X133.0Y-95.04
X133.0Y-105.0
X133.0Y-107.54
X133.0Y-117.725
X133.0Y-120.265
X133.0Y-130.0
X133.0Y-132.54
X133.0Y-143.0
X133.0Y-145.54
X134.225Y-73.925
X134.225Y-76.465
X134.225Y-79.005
X134.225Y-81.545
X134.225Y-84.085
X136.765Y-73.925
X136.765Y-76.465
X136.765Y-79.005
X136.765Y-81.545
X136.765Y-84.085
T6
X84.3Y-84.955
X84.3Y-87.495
X84.3Y-90.035
X84.3Y-92.575
X84.3Y-95.115
X84.3Y-97.655
X84.3Y-100.195
X84.3Y-102.735
X84.3Y-105.275
X84.3Y-107.815
X84.3Y-110.355
X84.3Y-112.895
X84.3Y-115.435
X84.3Y-117.975
X84.3Y-120.515
X109.7Y-84.955
X109.7Y-87.495
X109.7Y-90.035
X109.7Y-92.575
X109.7Y-95.115
X109.7Y-97.655
X109.7Y-100.195
X109.7Y-102.735
X109.7Y-105.275
X109.7Y-107.815
X109.7Y-110.355
X109.7Y-112.895
X109.7Y-115.435
X109.7Y-117.975
X109.7Y-120.515
T7
X54.445Y-88.96
X54.445Y-91.5
X54.445Y-94.04
X54.445Y-101.5
X54.445Y-104.04
X54.445Y-106.58
X54.445Y-114.0
X54.445Y-116.54
X54.445Y-119.08
X54.445Y-139.0
X54.445Y-141.54
X54.445Y-144.08
X54.5Y-126.46
X54.5Y-129.0
X54.5Y-131.54
X106.0Y-134.92
X106.0Y-137.46
X106.0Y-140.0
X140.055Y-88.96
X140.055Y-91.5
X140.055Y-94.04
X140.055Y-101.46
X140.055Y-104.0
X140.055Y-106.54
X140.055Y-114.0
X140.055Y-116.54
X140.055Y-119.08
X140.055Y-126.46
X140.055Y-129.0
X140.055Y-131.54
X140.055Y-139.0
X140.055Y-141.54
X140.055Y-144.08
T8
X123.9Y-68.0
X131.7Y-68.0
T3
X83.246Y-71.55G85X83.246Y-72.25
G05
X85.746Y-71.55G85X85.746Y-72.25
G05
X88.246Y-66.55G85X88.246Y-67.25
G05
X90.746Y-71.55G85X90.746Y-72.25
G05
X93.246Y-71.55G85X93.246Y-72.25
G05
X100.246Y-71.55G85X100.246Y-72.25
G05
X102.746Y-71.55G85X102.746Y-72.25
G05
X105.246Y-66.55G85X105.246Y-67.25
G05
X107.746Y-71.55G85X107.746Y-72.25
G05
X110.246Y-71.55G85X110.246Y-72.25
G05
T0
M30
